<?xml version="1.0" encoding="utf-8"?>
<!-- Generator: Adobe Illustrator 25.2.0, SVG Export Plug-In . SVG Version: 6.00 Build 0)  -->
<svg version="1.1" id="Layer_1" xmlns="http://www.w3.org/2000/svg" xmlns:xlink="http://www.w3.org/1999/xlink" x="0px" y="0px"
	 viewBox="0 0 616.4 616.4" style="enable-background:new 0 0 616.4 616.4;" xml:space="preserve">
<style type="text/css">
	.st0{opacity:0.75;}
	.st1{fill:#638DFF;}
</style>
<g id="Layer_2_1_" class="st0">
	<g id="Layer_1-2">
		<path class="st1" d="M308.2,405.3c-53.6,0-97.1-43.5-97.1-97.1h-1.9c0,54.7,44.3,99,99,99c0,0,0,0,0,0V405.3z M405.3,308.2
			c0,53.6-43.5,97.1-97.1,97.1l0,0v1.9c54.7,0,99-44.3,99-99l0,0H405.3z M308.2,211.1c53.6,0,97.1,43.5,97.1,97.1l0,0h1.9
			c0-54.7-44.3-99-99-99l0,0V211.1z M211.1,308.2c0-53.6,43.5-97.1,97.1-97.1v-1.9c-54.7,0-99,44.3-99,99c0,0,0,0,0,0H211.1z
			 M308.2,406.2L308.2,406.2z"/>
		<path class="st1" d="M308.2,186.9c67,0,121.3,54.3,121.3,121.3h1.7c0-67.9-55.1-123-123-123c0,0,0,0,0,0V186.9z M186.9,308.2
			c0-67,54.3-121.3,121.3-121.3v-1.7c-67.9,0-123,55.1-123,123c0,0,0,0,0,0H186.9z M308.2,429.5c-67,0-121.3-54.3-121.3-121.3h-1.7
			c0,67.9,55.1,123,123,123c0,0,0,0,0,0V429.5z M429.5,308.2c0,67-54.3,121.3-121.3,121.3h0v1.7c67.9,0,123-55.1,123-123v0H429.5z"
			/>
		<path class="st1" d="M308.2,162.7c80.4,0,145.5,65.1,145.5,145.5h1.5c0-81.2-65.8-147-147-147c0,0,0,0,0,0L308.2,162.7z
			 M162.7,308.2c0-80.4,65.1-145.5,145.5-145.5v-1.5c-81.2,0-147,65.8-147,147c0,0,0,0,0,0L162.7,308.2z M308.2,453.7
			c-80.4,0-145.5-65.1-145.5-145.5l0,0h-1.5c0,81.2,65.8,147,147,147c0,0,0,0,0,0L308.2,453.7z M453.7,308.2
			c0,80.4-65.1,145.5-145.5,145.5l0,0v1.5c81.2,0,147-65.8,147-147L453.7,308.2z"/>
		<path class="st1" d="M308.2,138.4c93.7,0,169.7,76,169.7,169.7h1.3c0-94.4-76.6-171-171-171l0,0L308.2,138.4z M138.4,308.2
			c0-93.7,76-169.7,169.7-169.7v-1.3c-94.4,0-171,76.6-171,171L138.4,308.2z M308.2,477.9c-93.7,0-169.7-76-169.7-169.7h-1.3
			c0,94.4,76.6,171,171,171L308.2,477.9z M477.9,308.2c0,93.8-76,169.7-169.7,169.7l0,0v1.3c94.4,0,171-76.6,171-171l0,0
			L477.9,308.2z"/>
		<path class="st1" d="M308.2,114.2c107.1,0,194,86.8,194,194h1.1c0-107.7-87.3-195.1-195.1-195.1L308.2,114.2z M114.2,308.2
			c0-107.1,86.8-194,194-194v-1.1c-107.7,0-195.1,87.3-195.1,195.1H114.2z M308.2,502.1c-107.1,0-194-86.8-194-194h-1.1
			c0,107.7,87.3,195.1,195.1,195.1V502.1z M502.1,308.2c0,107.1-86.8,194-194,194v1.1c107.7,0,195.1-87.3,195.1-195.1L502.1,308.2z"
			/>
		<path class="st1" d="M308.2,90c120.5,0,218.2,97.7,218.2,218.2h0.9c0-121-98.1-219.1-219.1-219.1L308.2,90z M90,308.2
			C90,187.7,187.7,90,308.2,90v-0.9c-121,0-219.1,98.1-219.1,219.1L90,308.2z M308.2,526.4C187.7,526.4,90,428.7,90,308.2h-0.9
			c0,121,98.1,219.1,219.1,219.1L308.2,526.4z M526.4,308.2c0,120.5-97.7,218.2-218.2,218.2v0.9c121,0,219.1-98.1,219.1-219.1
			L526.4,308.2z"/>
		<path class="st1" d="M308.2,65.8c133.9,0,242.4,108.5,242.4,242.4h0.7c0-134.3-108.9-243.1-243.1-243.1L308.2,65.8z M65.8,308.2
			c0-133.9,108.5-242.4,242.4-242.4v-0.7c-134.3,0-243.1,108.9-243.1,243.1H65.8z M308.2,550.6c-133.9,0-242.4-108.5-242.4-242.4
			h-0.7c0,134.3,108.9,243.1,243.1,243.1V550.6z M550.6,308.2c0,133.9-108.5,242.4-242.4,242.4v0.7c134.3,0,243.1-108.9,243.1-243.1
			L550.6,308.2z"/>
		<path class="st1" d="M308.2,41.6c147.2,0,266.6,119.4,266.6,266.6h0.5C575.3,160.6,455.7,41,308.2,41V41.6z M41.6,308.2
			c0-147.2,119.4-266.6,266.6-266.6V41C160.6,41,41,160.6,41,308.2H41.6z M308.2,574.8c-147.2,0-266.6-119.4-266.6-266.6H41
			c0,147.6,119.6,267.2,267.2,267.2V574.8z M574.8,308.2c0,147.2-119.4,266.6-266.6,266.6v0.5c147.5,0,267.2-119.6,267.2-267.2
			H574.8z"/>
		<path class="st1" d="M308.2,599C147.6,599,17.3,468.8,17.3,308.2H17C17,469,147.4,599.4,308.2,599.4V599z M599,308.2
			C599,468.8,468.8,599,308.2,599v0.3c160.8,0,291.2-130.4,291.2-291.2H599z M308.2,17.3C468.8,17.3,599,147.6,599,308.2h0.3
			C599.4,147.4,469,17,308.2,17V17.3z M17.3,308.2c0-160.6,130.2-290.8,290.8-290.8V17C147.4,17,17,147.4,17,308.2H17.3z"/>
	</g>
</g>
</svg>
