<?xml version="1.0" encoding="utf-8"?>
<!-- Generator: Adobe Illustrator 25.2.0, SVG Export Plug-In . SVG Version: 6.00 Build 0)  -->
<svg version="1.1" id="Layer_1" xmlns="http://www.w3.org/2000/svg" xmlns:xlink="http://www.w3.org/1999/xlink" x="0px" y="0px"
	 viewBox="0 0 849 193" style="enable-background:new 0 0 849 193;" xml:space="preserve">
<style type="text/css">
	.st0{clip-path:url(#SVGID_2_);}
	.st1{fill:url(#SVGID_3_);}
	.st2{fill:url(#SVGID_4_);}
	.st3{fill:url(#SVGID_5_);}
	.st4{fill:url(#SVGID_6_);}
	.st5{fill:#616161;}
</style>
<g>
	<defs>
		<rect id="SVGID_1_" x="33" y="78" width="188" height="48"/>
	</defs>
	<clipPath id="SVGID_2_">
		<use xlink:href="#SVGID_1_"  style="overflow:visible;"/>
	</clipPath>
	<g class="st0">
		
			<linearGradient id="SVGID_3_" gradientUnits="userSpaceOnUse" x1="105.4994" y1="113.6343" x2="105.4994" y2="56.897" gradientTransform="matrix(1 0 0 -1 0 194)">
			<stop  offset="0" style="stop-color:#0539B7"/>
			<stop  offset="0.4844" style="stop-color:#0085FF"/>
		</linearGradient>
		<path class="st1" d="M81.3,114.6l29-25.3c0,0,9.6-4.6,19.4,4.9l-30.1,24.9C99.7,119.1,87.5,120.4,81.3,114.6z"/>
		
			<linearGradient id="SVGID_4_" gradientUnits="userSpaceOnUse" x1="139.512" y1="67.968" x2="139.512" y2="138.1208" gradientTransform="matrix(1 0 0 -1 0 194)">
			<stop  offset="5.070000e-02" style="stop-color:#0539B7"/>
			<stop  offset="0.6823" style="stop-color:#0085FF"/>
		</linearGradient>
		<path class="st2" d="M147.4,89.8c-2.9-3-5.8-6.1-9.4-8.5c-0.9-0.6-1.9-1.1-2.9-1.6l0,0c-1.3-0.6-2.6-1.1-4-1.4
			c-6.7-1.3-11.3,2.8-11.3,2.8l-9.5,8.2c4.5-0.3,8.3-1.1,12.6,0.9c3.9,1.8,6.8,5,9.7,8.1c5.4,5.8,11,11.5,16.8,17
			c0.5,0.4,1,0.9,1.6,1.1c0.5,0.1,1,0.1,1.4,0.1c3-0.1,6-0.5,9-1.2c2.8-0.7,5.8-1.8,7.2-4.4C161.5,103.9,154.3,96.9,147.4,89.8z"/>
		
			<linearGradient id="SVGID_5_" gradientUnits="userSpaceOnUse" x1="147.998" y1="90.0063" x2="221.007" y2="90.0063" gradientTransform="matrix(1 0 0 -1 0 194)">
			<stop  offset="0" style="stop-color:#0085FF"/>
			<stop  offset="0.8125" style="stop-color:#023DC7"/>
		</linearGradient>
		<path class="st3" d="M202.2,98c6.6-6.6,13.1-5.1,16.5-3.5c0.9,0.3,1.7,0.7,2.4,1.4c-2.9-3.9-5.8-7.8-9.8-10.6
			c-4-2.8-9.3-4.3-13.9-2.6c-2.4,0.9-4.5,2.5-6.4,4.2c-6.3,5.8-11.5,12.7-17.9,18.4c-1.8,1.6-3.6,3-5.7,4.4
			c-0.3,0.2-12.3,7.7-19.4,4.2l2.5,2.3c0.2,0.2,0.4,0.4,0.6,0.5l4.8,4.4c1.4,1.3,2.8,2.6,4.5,3.5c4.2,2.3,9.6,1.6,13.9-0.6
			c4.3-2.2,7.7-5.6,11.1-9c5-5.1,10-10.2,15.1-15.2C200.9,99.2,201.5,98.6,202.2,98L202.2,98z"/>
		
			<linearGradient id="SVGID_6_" gradientUnits="userSpaceOnUse" x1="106.009" y1="90.0049" x2="33" y2="90.0049" gradientTransform="matrix(1 0 0 -1 0 194)">
			<stop  offset="0.1011" style="stop-color:#023DC7"/>
			<stop  offset="0.7811" style="stop-color:#0085FF"/>
		</linearGradient>
		<path class="st4" d="M51.9,98c-6.6-6.6-13.1-5.1-16.5-3.5c-0.9,0.3-1.7,0.7-2.4,1.4c2.9-3.9,5.8-7.8,9.8-10.6
			c4-2.8,9.3-4.3,13.9-2.6c2.4,0.9,4.5,2.5,6.4,4.2c6.3,5.8,11.5,12.7,17.9,18.4c1.8,1.6,3.6,3,5.7,4.4c0.3,0.2,12.3,7.7,19.4,4.2
			l-2.5,2.3c-0.2,0.2-0.4,0.4-0.6,0.5l-4.8,4.4c-1.4,1.3-2.8,2.6-4.5,3.5c-4.2,2.3-9.6,1.6-13.9-0.6c-4.3-2.2-7.7-5.6-11.1-9
			c-5-5.1-10-10.2-15.1-15.2C53.1,99.2,52.5,98.6,51.9,98L51.9,98z"/>
	</g>
</g>
<path class="st5" d="M258.7,121h25v5h-30.5V72.3h5.5V121z M312.6,126h-5.5V72.3h5.5V126z M397.3,126h-30.7c-3.9,0-7.5-0.7-10.8-2
	c-3.3-1.4-6.1-3.3-8.6-5.7c-2.4-2.5-4.3-5.4-5.7-8.7c-1.4-3.4-2-7.1-2-11.1c0-4,0.7-7.7,2-11c1.4-3.4,3.3-6.3,5.7-8.7
	c2.4-2.5,5.3-4.4,8.6-5.8c3.3-1.4,7-2,10.8-2c3.8,0,7.4,0.7,10.7,2c3.3,1.4,6.2,3.3,8.6,5.8c2.4,2.4,4.3,5.3,5.7,8.7
	c1.4,3.3,2,7,2,11c0,4.9-1,9.2-3,13.1c-2,3.8-5.2,6.9-9.6,9.3v0.2h16.2V126z M345.4,98.5c0,3,0.5,5.8,1.4,8.6c1,2.7,2.4,5.1,4.2,7.1
	c1.8,2.1,4,3.7,6.7,5c2.6,1.2,5.6,1.8,9,1.8c3.3,0,6.2-0.6,8.9-1.8c2.6-1.3,4.9-2.9,6.7-5c1.8-2.1,3.2-4.5,4.2-7.1
	c1-2.7,1.4-5.6,1.4-8.6c0-3-0.5-5.8-1.4-8.5c-1-2.7-2.4-5.1-4.2-7.2c-1.8-2.1-4-3.7-6.7-4.9c-2.6-1.3-5.6-1.9-8.9-1.9
	c-3.3,0-6.3,0.6-9,1.9c-2.6,1.2-4.9,2.9-6.7,4.9c-1.8,2.1-3.2,4.5-4.2,7.2C345.8,92.6,345.4,95.5,345.4,98.5z M460.7,106
	c0,2.2-0.3,4.6-0.8,7.1c-0.5,2.5-1.5,4.8-3,6.9c-1.5,2.1-3.5,3.9-6.1,5.3c-2.5,1.4-5.8,2-9.8,2c-4,0-7.3-0.7-9.9-2
	c-2.5-1.4-4.5-3.2-6-5.3c-1.5-2.1-2.5-4.4-3-6.9c-0.5-2.5-0.8-4.9-0.8-7.1V72.3h5.5v33.1c0,2.6,0.3,4.8,0.8,6.7
	c0.5,1.8,1.2,3.4,2,4.6c0.9,1.3,1.8,2.3,2.8,3c1.1,0.7,2.1,1.3,3.1,1.7c1.1,0.4,2.1,0.7,3,0.8c1,0.1,1.8,0.2,2.5,0.2
	c0.7,0,1.5-0.1,2.4-0.2c1-0.2,2-0.4,3-0.8c1.1-0.4,2.1-1,3.1-1.7c1.1-0.8,2-1.8,2.8-3c0.9-1.3,1.5-2.8,2-4.6
	c0.5-1.9,0.8-4.1,0.8-6.7V72.3h5.5V106z M495.7,126h-5.5V72.3h5.5V126z M530.9,121h10.6c4.1,0,7.6-0.6,10.6-1.8
	c3-1.3,5.5-2.9,7.5-4.9c2-2.1,3.5-4.4,4.5-7c1-2.6,1.4-5.3,1.4-8.1c0-2.8-0.5-5.5-1.4-8c-1-2.6-2.5-5-4.5-7c-2-2.1-4.5-3.7-7.5-4.9
	c-3-1.3-6.5-1.9-10.6-1.9h-10.6V121z M525.4,72.3h17.8c3.3,0,6.7,0.6,10,1.7c3.4,1.1,6.4,2.8,9.1,5.1c2.7,2.2,4.9,5,6.6,8.4
	c1.7,3.3,2.5,7.2,2.5,11.7c0,4.5-0.8,8.4-2.5,11.8c-1.7,3.3-3.9,6.1-6.6,8.4c-2.7,2.2-5.7,3.9-9.1,5c-3.3,1.1-6.7,1.7-10,1.7h-17.8
	V72.3z M603.8,126h-5.5V72.3h5.5V126z M651.5,126H646V77.3h-18v-5h41.4v5h-18V126z M711,126h-5.5v-23.1l-20.1-30.6h6.8l16,25.3
	l16-25.3h6.8L711,102.9V126z"/>
<path class="st5" d="M738.5,125.2c0.4,0,0.8,0.2,1.1,0.4c0.3,0.3,0.4,0.6,0.4,1.1c0,0.4-0.2,0.8-0.5,1.1c-0.3,0.3-0.6,0.4-1,0.4
	c-0.4,0-0.7-0.1-1-0.4c-0.3-0.3-0.5-0.7-0.5-1.1c0-0.4,0.1-0.8,0.4-1.1C737.7,125.3,738.1,125.2,738.5,125.2z"/>
<path class="st5" d="M749.4,110.3h2.6l10.2,14.7h0v-14.7h2.1V128h-2.7l-10.2-14.7h0V128h-2.1V110.3z"/>
<path class="st5" d="M774.1,110.3h11.1v1.9h-9v5.6h8.4v1.9h-8.4v6.3h9.5v1.9h-11.6V110.3z"/>
<path class="st5" d="M806.1,112.2h-5.8V128h-2.1v-15.8h-5.8v-1.9h13.8V112.2z"/>
</svg>
