<?xml version="1.0" encoding="UTF-8"?>
<svg width="80px" height="80px" viewBox="0 0 80 80" version="1.1" xmlns="http://www.w3.org/2000/svg" xmlns:xlink="http://www.w3.org/1999/xlink">
    <title>Group 9</title>
    <defs>
        <rect id="path-1" x="0" y="0" width="80" height="80"></rect>
    </defs>
    <g id="Final" stroke="none" stroke-width="1" fill="none" fill-rule="evenodd">
        <g id="Product-design---desktop" transform="translate(-732.000000, -1406.000000)">
            <g id="Group-9" transform="translate(732.000000, 1406.000000)">
                <mask id="mask-2" fill="white">
                    <use xlink:href="#path-1"></use>
                </mask>
                <g id="Mask"></g>
                <g mask="url(#mask-2)" fill="#00BECB">
                    <g transform="translate(0.000000, 13.750000)">
                        <path d="M59.0060386,49.2661519 C59.6826091,45.2653673 62.821488,42.101949 66.7912376,41.4200892 L66.7912376,49.2661519 L59.0060386,49.2661519 Z M3.20907159,41.4200892 C7.17882117,42.101949 10.3177001,45.2653673 10.9939614,49.2661519 L3.20907159,49.2661519 L3.20907159,41.4200892 Z M10.9939614,13.2341597 C10.3173909,17.2349443 7.17882117,20.3983626 3.20907159,21.0802225 L3.20907159,13.2341597 L10.9939614,13.2341597 Z M66.7912376,24.3474156 L66.7912376,38.152896 C61.0493557,38.8839944 56.4893077,43.4796923 55.7641898,49.2661519 L14.2361194,49.2661519 C13.5110016,43.4796923 8.95064428,38.884306 3.20907159,38.152896 L3.20907159,24.3474156 C8.95064428,23.6163173 13.5106923,19.0206193 14.2361194,13.2341597 L55.7641898,13.2341597 C56.4893077,19.0206193 61.0493557,23.6163173 66.7912376,24.3474156 L66.7912376,24.3474156 Z M66.7912376,21.0802225 C62.821488,20.3983626 59.6826091,17.2349443 59.0060386,13.2341597 L66.7912376,13.2341597 L66.7912376,21.0802225 Z M67.1588987,10 L2.84141057,10 C1.27459945,10 0,11.2845641 0,12.8636244 L0,49.6366873 C0,51.2157475 1.27459945,52.5 2.84141057,52.5 L67.1588987,52.5 C68.7257098,52.5 70,51.2157475 70,49.6366873 L70,12.8636244 C70,11.2845641 68.7257098,10 67.1588987,10 L67.1588987,10 Z" id="Fill-1"></path>
                        <path d="M38.0497599,31.9417828 C37.8995083,31.7840059 37.7465412,31.6287234 37.5908588,31.4728173 C37.7465412,31.6287234 37.8995083,31.7840059 38.0497599,31.9417828 C38.1197567,32.0153705 38.1888483,32.0898936 38.2558279,32.1653522 C38.1888483,32.0898936 38.1197567,32.0153705 38.0497599,31.9417828 M33.0528369,33.0368672 C33.0588711,33.0368672 33.0646036,33.03562 33.0706378,33.03562 C33.0778789,33.03562 33.0851199,33.0378026 33.0926627,33.0378026 C33.0793874,33.0374908 33.0661122,33.0365554 33.0528369,33.0368672 M37.0408413,33.0112986 C37.175404,33.1709464 37.3018205,33.3368305 37.4182806,33.5108217 C37.3018205,33.3368305 37.175404,33.1709464 37.0408413,33.0112986 M33.5177722,29.637179 C33.8092242,29.9330888 34.1127446,30.2193324 34.4129462,30.5080704 C34.1127446,30.2193324 33.8092242,29.9330888 33.5177722,29.637179 M35.3358774,24.0604182 L35.3367825,24.0604182 L35.3358774,24.0604182 C35.0851563,24.0819332 34.8486156,24.1374358 34.6313843,24.2219369 C34.8486156,24.1374358 35.0851563,24.0819332 35.3358774,24.0604182 M38.1960893,28.207832 C38.18915,28.207832 38.1822107,28.2090792 38.1752713,28.2090792 C38.1677286,28.2090792 38.1598841,28.2072084 38.1523413,28.2072084 C38.1671251,28.2072084 38.1816072,28.2081438 38.1960893,28.207832 M39.7523101,33.7861519 C39.499477,33.0415444 39.0574717,32.3546222 38.3614265,31.624358 C38.0630352,31.3112986 37.7592131,31.0125825 37.4381935,30.696405 L37.415867,30.6748899 L37.404402,30.6636647 L35.8312854,29.2230924 L35.7603835,29.1585473 C35.1114051,28.5679751 34.4983301,28.0098313 34.0825736,27.3154255 C33.7654762,26.7865921 33.6604811,26.3166911 33.7518993,25.8368122 C33.8915911,25.1046772 34.527596,24.5842627 35.3723843,24.510675 C35.4450965,24.5044387 35.5181103,24.5013206 35.5896156,24.5013206 C36.3061771,24.5013206 36.9358462,24.8246698 37.2737615,25.3662876 C37.5694374,25.8411775 37.5993067,26.4068048 37.3567318,26.959336 C37.2595811,27.1804109 37.1099329,27.4014857 36.9623966,27.6079054 C36.8284374,27.7949927 36.8540827,28.0569149 37.0215318,28.2125092 C37.332595,28.5021827 37.7423173,28.6612069 38.1752713,28.6612069 C38.7862343,28.6612069 39.3453032,28.3428467 39.6340397,27.8299156 C39.6560646,27.7906273 39.6690381,27.7631878 39.6738655,27.7516508 C40.1424213,26.6497065 40.1038024,25.5228173 39.5595173,24.4024762 C39.0601871,23.3747432 38.1526431,22.622964 37.0468755,22.2665627 L37.0468755,20.4521277 C37.0468755,20.2026779 36.8507639,20 36.6093958,20 L34.6407373,20 C34.3990675,20 34.2032576,20.2026779 34.2032576,20.4521277 L34.2032576,22.2250917 C32.345025,22.7545488 31.1442187,24.332942 31.25736,26.252146 C31.314685,27.2184519 31.6722114,28.1139765 32.3507575,28.9904806 C32.8253475,29.6035033 33.3856232,30.1404439 33.9274946,30.6592993 L34.1151583,30.839215 C34.1178737,30.8417095 34.120589,30.844204 34.1233044,30.8466985 L35.3971246,32.0106933 L35.4417777,32.0515407 C36.0548526,32.6081255 36.6338343,33.133529 37.0586422,33.7680668 C37.3365172,34.182777 37.4807346,34.551339 37.5130176,34.9283199 C37.5531451,35.3985326 37.4237114,35.8172964 37.1382936,36.1393984 C36.7946458,36.5269809 36.2588087,36.749303 35.6680602,36.749303 C35.5395317,36.749303 35.4094947,36.7387014 35.2815696,36.7168745 C34.6763391,36.6155356 34.1791208,36.2790902 33.9172364,35.7939105 C33.6822042,35.3583089 33.6604811,34.8503668 33.8559893,34.3633162 C33.9452955,34.1400587 34.0843838,33.8974688 34.2699356,33.6427183 C34.4060068,33.4553191 34.3851888,33.1862252 34.2168346,33.0293837 C33.9078834,32.7418929 33.5005748,32.5838041 33.0706378,32.5838041 C32.4732518,32.5838041 31.9217257,32.8924982 31.6314806,33.3901504 C31.5753625,33.4861886 31.562389,33.5114453 31.5497171,33.5426266 C30.9300046,35.0658291 31.3174003,36.8465884 32.5130775,37.9756603 C33.0211574,38.4552274 33.5874673,38.7926082 34.2032576,38.9940389 L34.2032576,40.7975605 C34.2032576,41.0473221 34.3990675,41.25 34.6407373,41.25 L36.6093958,41.25 C36.8507639,41.25 37.0468755,41.0473221 37.0468755,40.7975605 L37.0468755,39.0158657 C38.2736288,38.6794204 39.1485882,37.9500917 39.6482201,36.8391049 C40.0793639,35.8805943 40.1143622,34.853485 39.7523101,33.7861519" id="Fill-3"></path>
                        <path d="M35.625,19.375 C28.7325,19.375 23.125,24.9825 23.125,31.875 C23.125,38.7675 28.7325,44.375 35.625,44.375 C42.5171875,44.375 48.125,38.7675 48.125,31.875 C48.125,24.9825 42.5171875,19.375 35.625,19.375 M35.625,47.5 C27.009375,47.5 20,40.490625 20,31.875 C20,23.259375 27.009375,16.25 35.625,16.25 C44.2409375,16.25 51.25,23.259375 51.25,31.875 C51.25,40.490625 44.2409375,47.5 35.625,47.5" id="Fill-5"></path>
                        <path d="M77.1588987,42.5 C76.2729871,42.5 75.5546721,41.7760693 75.5546721,40.8832318 C75.5546721,40.1172302 76.0825084,39.4761947 76.7915468,39.3088461 L76.7915468,3.23384808 L13.1667086,3.23384808 C13.0006582,3.94842972 12.3642861,4.48039259 11.6045358,4.48039259 C10.718315,4.48039259 10,3.75646187 10,2.86362436 C10,1.28456411 11.2745995,0 12.8414106,0 L77.1588987,0 C78.7254005,0 80,1.28456411 80,2.86362436 L80,39.6366873 C80,41.2154359 78.7254005,42.5 77.1588987,42.5" id="Fill-7"></path>
                    </g>
                </g>
            </g>
        </g>
    </g>
</svg>