<?xml version="1.0" encoding="utf-8"?>
<!-- Generator: Adobe Illustrator 25.2.0, SVG Export Plug-In . SVG Version: 6.00 Build 0)  -->
<svg version="1.1" id="Layer_1" xmlns="http://www.w3.org/2000/svg" xmlns:xlink="http://www.w3.org/1999/xlink" x="0px" y="0px"
	 viewBox="0 0 80 80" style="enable-background:new 0 0 80 80;" xml:space="preserve">
<style type="text/css">
	.st0{filter:url(#Adobe_OpacityMaskFilter);}
	.st1{fill-rule:evenodd;clip-rule:evenodd;fill:#FFFFFF;}
	.st2{mask:url(#mask-2_1_);}
	.st3{fill-rule:evenodd;clip-rule:evenodd;fill:#0065E6;}
</style>
<g id="Final">
	<g id="Product-design---desktop" transform="translate(-732.000000, -1406.000000)">
		<g id="Group-9" transform="translate(732.000000, 1406.000000)">
			<g id="Mask">
			</g>
			<defs>
				<filter id="Adobe_OpacityMaskFilter" filterUnits="userSpaceOnUse" x="0" y="13.8" width="80" height="52.5">
					<feColorMatrix  type="matrix" values="1 0 0 0 0  0 1 0 0 0  0 0 1 0 0  0 0 0 1 0"/>
				</filter>
			</defs>
			<mask maskUnits="userSpaceOnUse" x="0" y="13.8" width="80" height="52.5" id="mask-2_1_">
				<g class="st0">
					<rect id="path-1_1_" class="st1" width="80" height="80"/>
				</g>
			</mask>
			<g class="st2">
				<g transform="translate(0.000000, 13.750000)">
					<path id="Fill-1" class="st3" d="M59,49.3c0.7-4,3.8-7.2,7.8-7.8v7.8H59z M3.2,41.4c4,0.7,7.1,3.8,7.8,7.8H3.2V41.4z M11,13.2
						c-0.7,4-3.8,7.2-7.8,7.8v-7.8H11z M66.8,24.3v13.8c-5.7,0.7-10.3,5.3-11,11.1H14.2c-0.7-5.8-5.3-10.4-11-11.1V24.3
						c5.7-0.7,10.3-5.3,11-11.1h41.5C56.5,19,61,23.6,66.8,24.3L66.8,24.3z M66.8,21.1c-4-0.7-7.1-3.8-7.8-7.8h7.8V21.1z M67.2,10
						H2.8C1.3,10,0,11.3,0,12.9v36.8c0,1.6,1.3,2.9,2.8,2.9h64.3c1.6,0,2.8-1.3,2.8-2.9V12.9C70,11.3,68.7,10,67.2,10L67.2,10z"/>
					<path id="Fill-3" class="st3" d="M38,31.9c-0.2-0.2-0.3-0.3-0.5-0.5C37.7,31.6,37.9,31.8,38,31.9c0.1,0.1,0.1,0.1,0.2,0.2
						C38.2,32.1,38.1,32,38,31.9 M33.1,33C33.1,33,33.1,33,33.1,33C33.1,33,33.1,33,33.1,33C33.1,33,33.1,33,33.1,33 M37,33
						c0.1,0.2,0.3,0.3,0.4,0.5C37.3,33.3,37.2,33.2,37,33 M33.5,29.6c0.3,0.3,0.6,0.6,0.9,0.9C34.1,30.2,33.8,29.9,33.5,29.6
						 M35.3,24.1L35.3,24.1L35.3,24.1c-0.3,0-0.5,0.1-0.7,0.2C34.8,24.1,35.1,24.1,35.3,24.1 M38.2,28.2
						C38.2,28.2,38.2,28.2,38.2,28.2C38.2,28.2,38.2,28.2,38.2,28.2C38.2,28.2,38.2,28.2,38.2,28.2 M39.8,33.8
						c-0.3-0.7-0.7-1.4-1.4-2.2c-0.3-0.3-0.6-0.6-0.9-0.9l0,0l0,0l-1.6-1.4l-0.1-0.1c-0.6-0.6-1.3-1.1-1.7-1.8
						c-0.3-0.5-0.4-1-0.3-1.5c0.1-0.7,0.8-1.3,1.6-1.3c0.1,0,0.1,0,0.2,0c0.7,0,1.3,0.3,1.7,0.9c0.3,0.5,0.3,1,0.1,1.6
						c-0.1,0.2-0.2,0.4-0.4,0.6c-0.1,0.2-0.1,0.4,0.1,0.6c0.3,0.3,0.7,0.4,1.2,0.4c0.6,0,1.2-0.3,1.5-0.8c0,0,0-0.1,0-0.1
						c0.5-1.1,0.4-2.2-0.1-3.3c-0.5-1-1.4-1.8-2.5-2.1v-1.8c0-0.2-0.2-0.5-0.4-0.5h-2c-0.2,0-0.4,0.2-0.4,0.5v1.8
						c-1.9,0.5-3.1,2.1-2.9,4c0.1,1,0.4,1.9,1.1,2.7c0.5,0.6,1,1.1,1.6,1.7l0.2,0.2c0,0,0,0,0,0l1.3,1.2l0,0
						c0.6,0.6,1.2,1.1,1.6,1.7c0.3,0.4,0.4,0.8,0.5,1.2c0,0.5-0.1,0.9-0.4,1.2c-0.3,0.4-0.9,0.6-1.5,0.6c-0.1,0-0.3,0-0.4,0
						c-0.6-0.1-1.1-0.4-1.4-0.9c-0.2-0.4-0.3-0.9-0.1-1.4c0.1-0.2,0.2-0.5,0.4-0.7c0.1-0.2,0.1-0.5-0.1-0.6
						c-0.3-0.3-0.7-0.4-1.1-0.4c-0.6,0-1.1,0.3-1.4,0.8c-0.1,0.1-0.1,0.1-0.1,0.2c-0.6,1.5-0.2,3.3,1,4.4c0.5,0.5,1.1,0.8,1.7,1v1.8
						c0,0.2,0.2,0.5,0.4,0.5h2c0.2,0,0.4-0.2,0.4-0.5V39c1.2-0.3,2.1-1.1,2.6-2.2C40.1,35.9,40.1,34.9,39.8,33.8"/>
					<path id="Fill-5" class="st3" d="M35.6,19.4c-6.9,0-12.5,5.6-12.5,12.5s5.6,12.5,12.5,12.5c6.9,0,12.5-5.6,12.5-12.5
						S42.5,19.4,35.6,19.4 M35.6,47.5c-8.6,0-15.6-7-15.6-15.6s7-15.6,15.6-15.6c8.6,0,15.6,7,15.6,15.6S44.2,47.5,35.6,47.5"/>
					<path id="Fill-7" class="st3" d="M77.2,42.5c-0.9,0-1.6-0.7-1.6-1.6c0-0.8,0.5-1.4,1.2-1.6V3.2H13.2c-0.2,0.7-0.8,1.2-1.6,1.2
						c-0.9,0-1.6-0.7-1.6-1.6C10,1.3,11.3,0,12.8,0h64.3C78.7,0,80,1.3,80,2.9v36.8C80,41.2,78.7,42.5,77.2,42.5"/>
				</g>
			</g>
		</g>
	</g>
</g>
</svg>
