<?xml version="1.0" encoding="utf-8"?>
<!-- Generator: Adobe Illustrator 25.2.0, SVG Export Plug-In . SVG Version: 6.00 Build 0)  -->
<svg version="1.1" id="Layer_1" xmlns="http://www.w3.org/2000/svg" xmlns:xlink="http://www.w3.org/1999/xlink" x="0px" y="0px"
	 viewBox="0 0 80 80" style="enable-background:new 0 0 80 80;" xml:space="preserve">
<style type="text/css">
	.st0{filter:url(#Adobe_OpacityMaskFilter);}
	.st1{fill-rule:evenodd;clip-rule:evenodd;fill:#FFFFFF;}
	.st2{mask:url(#mask-2_1_);}
	.st3{filter:url(#Adobe_OpacityMaskFilter_1_);}
	.st4{mask:url(#mask-4_1_);fill-rule:evenodd;clip-rule:evenodd;fill:#0065E6;}
	.st5{fill-rule:evenodd;clip-rule:evenodd;fill:#0065E6;}
	.st6{filter:url(#Adobe_OpacityMaskFilter_2_);}
	.st7{mask:url(#mask-6_1_);fill-rule:evenodd;clip-rule:evenodd;fill:#0065E6;}
</style>
<g id="Final">
	<g id="Product-design---desktop" transform="translate(-156.000000, -1084.000000)">
		<g id="Group-15" transform="translate(156.000000, 1084.000000)">
			<g id="Mask">
			</g>
			<defs>
				<filter id="Adobe_OpacityMaskFilter" filterUnits="userSpaceOnUse" x="0" y="6.2" width="80" height="68.8">
					<feColorMatrix  type="matrix" values="1 0 0 0 0  0 1 0 0 0  0 0 1 0 0  0 0 0 1 0"/>
				</filter>
			</defs>
			<mask maskUnits="userSpaceOnUse" x="0" y="6.2" width="80" height="68.8" id="mask-2_1_">
				<g class="st0">
					<rect id="path-1_1_" class="st1" width="80" height="80"/>
				</g>
			</mask>
			<g class="st2">
				<g transform="translate(0.000000, 6.250000)">
					<g id="Group-3" transform="translate(0.000000, 48.750000)">
						<g id="Clip-2">
						</g>
						<defs>
							<filter id="Adobe_OpacityMaskFilter_1_" filterUnits="userSpaceOnUse" x="0" y="0" width="40" height="20">
								<feColorMatrix  type="matrix" values="1 0 0 0 0  0 1 0 0 0  0 0 1 0 0  0 0 0 1 0"/>
							</filter>
						</defs>
						<mask maskUnits="userSpaceOnUse" x="0" y="0" width="40" height="20" id="mask-4_1_">
							<g class="st3">
								<polygon id="path-3_1_" class="st1" points="0,0 40,0 40,20 0,20 								"/>
							</g>
						</mask>
						<path id="Fill-1" class="st4" d="M3.8,16.4h32.4L32.4,3.6H7.6L3.8,16.4z M36.8,20H3.2c-1,0-1.9-0.5-2.6-1.3
							c-0.6-0.8-0.8-1.9-0.5-3l4-13.4C4.6,0.9,5.8,0,7.2,0h25.5c1.4,0,2.7,0.9,3.1,2.3l4,13.4c0.3,1,0.1,2.1-0.5,3
							C38.7,19.5,37.8,20,36.8,20L36.8,20z"/>
					</g>
					<path id="Fill-4" class="st5" d="M76.7,68.8h-29c-1,0-1.9-0.8-1.9-1.8s0.8-1.8,1.9-1.8h28.4l-3.9-12.7H46.9l-0.7,2.3
						c-0.3,1-1.3,1.5-2.3,1.2c-1-0.3-1.6-1.3-1.3-2.3l0.8-2.6c0.4-1.4,1.7-2.3,3.2-2.3h26.1c1.5,0,2.7,0.9,3.2,2.3l4.1,13.4
						c0.3,1,0.1,2.1-0.5,3C78.7,68.3,77.7,68.8,76.7,68.8"/>
					<path id="Fill-6" class="st5" d="M21.8,43.8c-0.2,0-0.3,0-0.5-0.1c-1-0.3-1.5-1.3-1.2-2.3l4-13.9c0.4-1.4,1.7-2.4,3.1-2.4h25.6
						c1.4,0,2.7,1,3.1,2.4l4,13.9c0.3,1-0.3,2-1.2,2.3c-1,0.3-2-0.3-2.3-1.3l-3.9-13.6H27.5l-3.9,13.6
						C23.4,43.2,22.6,43.8,21.8,43.8"/>
					<g id="Group-10" transform="translate(38.750000, 0.000000)">
						<g id="Clip-9">
						</g>
						<defs>
							<filter id="Adobe_OpacityMaskFilter_2_" filterUnits="userSpaceOnUse" x="0" y="0" width="3.8" height="15">
								<feColorMatrix  type="matrix" values="1 0 0 0 0  0 1 0 0 0  0 0 1 0 0  0 0 0 1 0"/>
							</filter>
						</defs>
						<mask maskUnits="userSpaceOnUse" x="0" y="0" width="3.8" height="15" id="mask-6_1_">
							<g class="st6">
								<polygon id="path-5_1_" class="st1" points="0,0 3.8,0 3.8,15 0,15 								"/>
							</g>
						</mask>
						<path id="Fill-8" class="st7" d="M1.9,15c-1,0-1.9-0.8-1.9-1.8V1.8C0,0.8,0.8,0,1.9,0c1,0,1.9,0.8,1.9,1.8v11.4
							C3.8,14.2,2.9,15,1.9,15"/>
					</g>
					<path id="Fill-11" class="st5" d="M56.8,18.8c-0.4,0-0.9-0.2-1.2-0.5C55.2,17.9,55,17.4,55,17c0-0.4,0.2-0.9,0.5-1.2l3.9-3.9h0
						L63.3,8c0.7-0.7,1.8-0.7,2.5,0c0.3,0.3,0.5,0.8,0.5,1.2c0,0.4-0.2,0.9-0.5,1.2L58,18.2C57.6,18.6,57.2,18.8,56.8,18.8"/>
					<path id="Fill-13" class="st5" d="M23.2,18.8c-0.4,0-0.9-0.2-1.2-0.5l-7.7-7.7c-0.3-0.3-0.5-0.8-0.5-1.2c0-0.4,0.2-0.9,0.5-1.2
						c0.7-0.7,1.8-0.7,2.5,0l3.9,3.9l0,0l3.9,3.9c0.3,0.3,0.5,0.8,0.5,1.2c0,0.4-0.2,0.9-0.5,1.2C24.1,18.6,23.7,18.8,23.2,18.8"/>
				</g>
			</g>
		</g>
	</g>
</g>
</svg>
