<?xml version="1.0" encoding="utf-8"?>
<!-- Generator: Adobe Illustrator 25.2.0, SVG Export Plug-In . SVG Version: 6.00 Build 0)  -->
<svg version="1.1" id="Layer_1" xmlns="http://www.w3.org/2000/svg" xmlns:xlink="http://www.w3.org/1999/xlink" x="0px" y="0px"
	 viewBox="0 0 80 80" style="enable-background:new 0 0 80 80;" xml:space="preserve">
<style type="text/css">
	.st0{filter:url(#Adobe_OpacityMaskFilter);}
	.st1{fill-rule:evenodd;clip-rule:evenodd;fill:#FFFFFF;}
	.st2{mask:url(#mask-2_1_);}
	.st3{fill-rule:evenodd;clip-rule:evenodd;fill:#0065E6;}
</style>
<g id="Final">
	<g id="Product-design---desktop" transform="translate(-732.000000, -1702.000000)">
		<g id="Group-5" transform="translate(732.000000, 1702.000000)">
			<g id="Mask">
			</g>
			<defs>
				<filter id="Adobe_OpacityMaskFilter" filterUnits="userSpaceOnUse" x="0" y="0" width="80" height="80">
					<feColorMatrix  type="matrix" values="1 0 0 0 0  0 1 0 0 0  0 0 1 0 0  0 0 0 1 0"/>
				</filter>
			</defs>
			<mask maskUnits="userSpaceOnUse" x="0" y="0" width="80" height="80" id="mask-2_1_">
				<g class="st0">
					<rect id="path-1_1_" class="st1" width="80" height="80"/>
				</g>
			</mask>
			<g class="st2">
				<path id="Fill-1" class="st3" d="M40,0C17.9,0,0,17.9,0,40c0,7.4,2,14.7,5.9,21c0.6,1.1,2,1.4,3.1,0.7c1.1-0.6,1.4-2,0.7-3.1
					C6.3,53,4.5,46.6,4.5,40C4.5,20.4,20.4,4.5,40,4.5S75.5,20.4,75.5,40S59.6,75.5,40,75.5c-6.3,0-12.5-1.7-18-4.9
					C21,70,19.6,70.4,19,71.4c-0.6,1.1-0.3,2.4,0.8,3.1C25.9,78.1,32.9,80,40,80c22.1,0,40-17.9,40-40S62.1,0,40,0"/>
				<path id="Fill-3" class="st3" d="M45.4,24.4c1,0.4,1.8,1.1,2.3,2.1c0.6,1,0.9,2.3,0.9,3.8c0,1.6-0.3,2.9-1,3.9
					c-0.6,1-1.6,1.6-2.8,2c-0.8,0.3-2.2,0.4-4.2,0.4h-7.5V23.9h7C42.7,23.9,44.4,24,45.4,24.4L45.4,24.4z M49.1,44.8
					c0.7,1.1,1,2.5,1,4.1c0,1.7-0.3,3.2-1,4.3c-0.7,1.1-1.7,2-3,2.5c-0.9,0.3-2.3,0.5-4.2,0.5h-8.6V41.6h8c2.4,0,4.1,0.3,5.2,0.8
					C47.5,42.9,48.4,43.7,49.1,44.8L49.1,44.8z M31.5,14v4.8h-2.9v42.3h2.9V66h5v-4.8h5V66h5v-5.3c0.9-0.2,1.7-0.5,2.4-0.8
					c1.7-0.9,3.1-2.3,4.2-4.2c1-1.9,1.6-4.2,1.6-6.7c0-2.6-0.6-4.7-1.7-6.5c-1.2-1.8-2.7-3-4.8-3.7c1.5-0.9,2.7-2.2,3.6-3.7
					c0.8-1.6,1.3-3.3,1.3-5.2c0-2.1-0.5-4-1.5-5.7c-1-1.7-2.2-3-3.8-3.8c-0.4-0.2-0.8-0.4-1.3-0.5V14h-5v4.8h-5V14H31.5z"/>
			</g>
		</g>
	</g>
</g>
</svg>
