<?xml version="1.0" encoding="UTF-8"?>
<svg width="80px" height="80px" viewBox="0 0 80 80" version="1.1" xmlns="http://www.w3.org/2000/svg" xmlns:xlink="http://www.w3.org/1999/xlink">
    <title>Group 14</title>
    <defs>
        <rect id="path-1" x="0" y="0" width="80" height="80"></rect>
        <polygon id="path-3" points="0 1.22930206e-14 48.8581414 1.22930206e-14 48.8581414 48.8585306 0 48.8585306"></polygon>
    </defs>
    <g id="Final" stroke="none" stroke-width="1" fill="none" fill-rule="evenodd">
        <g id="Product-design---desktop" transform="translate(-156.000000, -1702.000000)">
            <g id="Group-14" transform="translate(156.000000, 1702.000000)">
                <mask id="mask-2" fill="white">
                    <use xlink:href="#path-1"></use>
                </mask>
                <g id="Mask"></g>
                <g mask="url(#mask-2)">
                    <path d="M3.25822107,31.7800884 C3.39273548,31.8172853 3.53071006,31.8358838 3.66954969,31.8358838 C4.05795464,31.8358838 4.42905869,31.6905563 4.71452335,31.4262852 L10.3502877,26.2040121 C10.9718222,25.6278925 11.0090191,24.6529874 10.4328995,24.031453 C10.1539227,23.7304176 9.77416816,23.5556786 9.36370459,23.5401078 C8.95453858,23.5219419 8.56137589,23.6698644 8.26034043,23.9488413 L6.74564765,25.3528084 C9.06310165,18.2654994 13.3009543,12.5263622 19.3584278,8.27683152 C24.6827762,4.54156971 29.5577341,3.38197766 29.6044464,3.37116461 C30.004962,3.28033495 30.346222,3.03942007 30.5655108,2.69210474 C30.784367,2.3447894 30.8553007,1.93302826 30.764471,1.53251269 C30.5780539,0.707260318 29.751504,0.186936099 28.9266841,0.372055605 L28.9258191,0.372055605 C28.7078279,0.421795659 23.5145337,1.62766758 17.6728888,5.70332437 C12.9666146,8.98746551 6.82609678,14.9303207 3.68555301,24.8182109 L3.01514359,22.4981618 C2.90095773,22.103269 2.64014683,21.7771473 2.28072088,21.5786196 C1.92129492,21.3805244 1.50564108,21.333812 1.11118082,21.4479979 C0.716720564,21.5621837 0.390166296,21.8229946 0.191638602,22.1828531 C-0.00645657067,22.542279 -0.0527364471,22.9575004 0.0610168941,23.3519606 L2.19291887,30.7255993 C2.34170651,31.2415983 2.74005946,31.6360585 3.25822107,31.7800884" id="Fill-1" fill="#00BECB"></path>
                    <path d="M79.6274999,55.2013391 L77.4960304,47.8272679 C77.3489729,47.3186218 76.9411044,46.9146461 76.4307282,46.7727788 C75.9129991,46.630479 75.3688862,46.7611007 74.9744259,47.1265819 L69.338229,52.3488551 C68.7166946,52.9249747 68.6794977,53.8994472 69.2560498,54.5214142 C69.5345941,54.8224496 69.9143486,54.9967561 70.3243797,55.0123269 C70.7339782,55.0322229 71.1271409,54.8834353 71.4281763,54.6040259 L72.9433016,53.2000588 C70.6258476,60.2873678 66.387995,66.026505 60.330089,70.2764682 C55.0061731,74.0112975 50.1312152,75.171322 50.0840703,75.1817026 C49.2570879,75.3689847 48.7367636,76.1938046 48.9240458,77.0203545 C49.0836465,77.7257982 49.6999906,78.2188735 50.4227352,78.2188735 C50.5364886,78.2188735 50.6511069,78.2063304 50.7626977,78.1808116 C50.9806889,78.1315041 56.172253,76.9264972 62.0160605,72.8495428 C66.7223347,69.5654017 72.8628525,63.6216815 76.0029638,53.7342238 L76.6738057,56.0547054 C76.8628179,56.708679 77.4700791,57.1654224 78.1504365,57.1654224 C78.2944664,57.1654224 78.4380638,57.1450939 78.577336,57.1048693 C78.9717962,56.991116 79.2983505,56.7298726 79.4968782,56.3704466 C79.6949733,56.0110207 79.7416857,55.5957993 79.6274999,55.2013391" id="Fill-3" fill="#00BECB"></path>
                    <g id="Group-7" transform="translate(0.567803, 31.141469)">
                        <mask id="mask-4" fill="white">
                            <use xlink:href="#path-3"></use>
                        </mask>
                        <g id="Clip-6"></g>
                        <path d="M24.4288544,1.22930206e-14 C10.9583827,1.22930206e-14 0,10.9588152 0,24.4288544 C0,28.9599571 1.24998919,33.3850918 3.61502063,37.224159 C4.13534485,38.0693074 5.24173666,38.3322809 6.08645254,37.8119566 C6.93116842,37.2916324 7.19414192,36.1848081 6.6738177,35.3405247 C4.65783168,32.0676292 3.59209695,28.2943054 3.59209695,24.4288544 C3.59209695,12.939767 12.939767,3.59252948 24.4288544,3.59252948 C35.9183744,3.59252948 45.2656119,12.939767 45.2656119,24.4288544 C45.2656119,35.9183744 35.9183744,45.2656119 24.4288544,45.2656119 C20.7152187,45.2656119 17.0703541,44.2772986 13.8882882,42.4075051 C13.0331918,41.9044818 11.9324227,42.190379 11.4293994,43.0454754 C10.9268086,43.9010043 11.2127058,45.0017733 12.0682347,45.5043641 C15.8013339,47.6985493 20.0759509,48.8585739 24.4288544,48.8585739 C37.8993261,48.8585739 48.8581414,37.8993261 48.8581414,24.4288544 C48.8581414,10.9588152 37.8993261,1.22930206e-14 24.4288544,1.22930206e-14" id="Fill-5" fill="#00BECB" mask="url(#mask-4)"></path>
                    </g>
                    <path d="M32.0589235,28.1714691 C33.0506969,28.1714691 33.8551882,27.3674103 33.8551882,26.3752044 C33.8551882,20.7351147 36.1047362,14.9834344 40.0272802,10.5950641 C44.0635774,6.07909966 49.2715774,3.59209695 54.6919457,3.59209695 C66.1814657,3.59209695 75.5287032,12.939767 75.5287032,24.4288544 C75.5287032,35.9183744 66.1814657,45.2656119 54.6919457,45.2656119 C53.6997397,45.2656119 52.895681,46.0696707 52.895681,47.0618766 C52.895681,48.0540826 53.6997397,48.8585739 54.6919457,48.8585739 C68.1624174,48.8585739 79.1216652,37.8993261 79.1216652,24.4288544 C79.1216652,10.9588152 68.1624174,0 54.6919457,0 C41.6782174,0 30.2626587,12.3247204 30.2626587,26.3752044 C30.2626587,27.3674103 31.0671501,28.1714691 32.0589235,28.1714691" id="Fill-8" fill="#00BECB"></path>
                    <path d="M29.1195458,61.1831645 C29.1178157,61.4050484 29.0326088,63.1528706 26.854427,63.9409261 L26.854427,57.9344902 C29.0633179,58.8505722 29.1208434,60.9015925 29.1199872,61.1321269 C29.1195458,61.1429399 29.1191133,61.1723515 29.1195458,61.1831645 Z M22.2701241,49.2797208 C22.5175268,48.973495 22.911122,48.5885503 23.4829164,48.3022206 L23.4829164,53.1767459 C22.1801595,52.5885157 21.6931395,52.04051 21.5616527,51.1079921 C21.5171029,50.793981 21.6702158,50.0201988 22.2701241,49.2797208 L22.2701241,49.2797208 Z M20.0897796,62.0326381 C19.5357187,61.2861048 18.4786344,61.1278017 17.7316685,61.6814301 C16.9851352,62.234626 16.8272646,63.2921428 17.3804605,64.0395412 C17.4764804,64.1692978 19.7031048,67.113909 23.4829164,67.6160673 L23.4829164,69.1649294 C23.4829164,70.0948521 24.2393977,70.8509009 25.1688879,70.8509009 C26.0983782,70.8509009 26.854427,70.0948521 26.854427,69.1649294 L26.854427,67.4361381 C32.1978064,66.2860615 32.4763507,61.7393881 32.4901914,61.2121435 C32.5286859,59.4824872 31.5343173,55.8713592 27.4941273,54.5820105 L26.854427,54.3795901 L26.854427,47.9765313 C28.3513864,48.213986 29.0853765,48.8216797 29.0858091,48.8216797 C29.7674641,49.4358613 30.8293061,49.3882838 31.4525706,48.7135492 C31.7579313,48.3826697 31.9166669,47.9527426 31.8989335,47.5029195 C31.8812001,47.0526639 31.6891602,46.6365775 31.3578482,46.3307843 C31.2043029,46.1893496 30.6199653,45.6923816 29.552068,45.243856 C28.7514694,44.9077863 27.8457679,44.6850373 26.854427,44.5807995 L26.854427,43.5665349 C26.854427,42.6366121 26.0983782,41.8805633 25.1688879,41.8805633 C24.2393977,41.8805633 23.4829164,42.6366121 23.4829164,43.5665349 L23.4829164,44.7429953 C21.9474625,45.1197221 20.6278373,45.9501648 19.649472,47.1586318 C18.5724917,48.4886376 18.0262162,50.1828271 18.2234463,51.5794414 C18.6680791,54.7307982 21.1256703,55.953971 23.4829164,56.8073373 L23.4829164,64.1952492 C21.3843186,63.7250975 20.1014577,62.0486414 20.0897796,62.0326381 L20.0897796,62.0326381 Z" id="Fill-10" fill="#00BECB"></path>
                    <path d="M45.7467376,33.7091375 L43.6528976,35.8406069 C43.5304938,35.9647408 43.495027,36.1502928 43.5625004,36.3107586 C43.6295414,36.4716568 43.7869795,36.5758947 43.9612859,36.5758947 L61.9472895,36.5758947 C62.8767797,36.5758947 63.6332611,35.8198458 63.6332611,34.8903556 C63.6332611,33.9608654 62.8767797,33.2048166 61.9472895,33.2048166 L50.0408181,33.2048166 C50.8768835,31.509762 51.7994534,28.9081409 52.1190873,25.3112862 L59.6060468,25.3112862 C60.535537,25.3112862 61.2915858,24.5548049 61.2915858,23.6257472 C61.2915858,22.696257 60.535537,21.9402081 59.6060468,21.9402081 L52.2241902,21.9402081 C52.2237577,21.6569061 52.2215951,21.372739 52.2073219,21.0721361 C51.9715973,16.1980433 53.5204593,15.286719 55.0658611,15.0384512 C58.051562,14.5587841 60.4118357,16.7417237 60.4308666,16.7598896 C61.0960858,17.4034827 62.1631181,17.3879119 62.8101713,16.7244228 C63.4585221,16.0583386 63.4442489,14.9891437 62.7785972,14.3407929 C62.6362974,14.2019533 59.2353752,10.953279 54.5316962,11.7097603 C50.4806932,12.3607062 48.5659174,15.5652633 48.8392714,21.2351969 C48.851382,21.4769768 48.8557073,21.7096738 48.8587349,21.9402081 L44.6217473,21.9402081 C43.6922571,21.9402081 42.9362083,22.696257 42.9362083,23.6257472 C42.9362083,24.5548049 43.6922571,25.3112862 44.6217473,25.3112862 L48.7341685,25.3112862 C48.4737901,27.8692226 47.8820998,29.7126322 47.4184359,30.8302696 C46.6152422,32.7666716 45.7484677,33.7069749 45.7467376,33.7091375" id="Fill-12" fill="#00BECB"></path>
                </g>
            </g>
        </g>
    </g>
</svg>