<?xml version="1.0" encoding="utf-8"?>
<!-- Generator: Adobe Illustrator 25.2.0, SVG Export Plug-In . SVG Version: 6.00 Build 0)  -->
<svg version="1.1" id="Layer_1" xmlns="http://www.w3.org/2000/svg" xmlns:xlink="http://www.w3.org/1999/xlink" x="0px" y="0px"
	 viewBox="0 0 80 80" style="enable-background:new 0 0 80 80;" xml:space="preserve">
<style type="text/css">
	.st0{fill-rule:evenodd;clip-rule:evenodd;fill:#0065E6;}
	.st1{filter:url(#Adobe_OpacityMaskFilter);}
	.st2{fill-rule:evenodd;clip-rule:evenodd;fill:#FFFFFF;}
	.st3{mask:url(#mask-2_1_);fill-rule:evenodd;clip-rule:evenodd;fill:#0065E6;}
	.st4{filter:url(#Adobe_OpacityMaskFilter_1_);}
	.st5{mask:url(#mask-4_1_);fill-rule:evenodd;clip-rule:evenodd;fill:#0065E6;}
	.st6{filter:url(#Adobe_OpacityMaskFilter_2_);}
	.st7{mask:url(#mask-6_1_);fill-rule:evenodd;clip-rule:evenodd;fill:#0065E6;}
</style>
<g id="Final">
	<g id="Product-design---desktop" transform="translate(-732.000000, -1084.000000)">
		<g id="Group-22" transform="translate(732.000000, 1084.000000)">
			<path id="Fill-1" class="st0" d="M2.3,62C1,62,0,63.1,0,64.3v13.3C0,79,1,80,2.3,80s2.3-1,2.3-2.3V64.3C4.7,63.1,3.6,62,2.3,62"
				/>
			<path id="Fill-3" class="st0" d="M14.9,54.4c-1.3,0-2.3,1-2.3,2.3v20.9c0,1.3,1,2.3,2.3,2.3s2.3-1,2.3-2.3V56.7
				C17.2,55.5,16.2,54.4,14.9,54.4"/>
			<path id="Fill-5" class="st0" d="M27.4,46c-1.3,0-2.3,1-2.3,2.3v29.3c0,1.3,1,2.3,2.3,2.3c1.3,0,2.3-1,2.3-2.3V48.4
				C29.8,47.1,28.7,46,27.4,46"/>
			<path id="Fill-7" class="st0" d="M40,37.7c-1.3,0-2.3,1-2.3,2.3v37.7c0,1.3,1,2.3,2.3,2.3c1.3,0,2.3-1,2.3-2.3V40
				C42.3,38.7,41.3,37.7,40,37.7"/>
			<path id="Fill-9" class="st0" d="M52.6,46c-1.3,0-2.3,1-2.3,2.3v29.3c0,1.3,1,2.3,2.3,2.3c1.3,0,2.3-1,2.3-2.3V48.4
				C54.9,47.1,53.8,46,52.6,46"/>
			<path id="Fill-11" class="st0" d="M65.1,33.5c-1.3,0-2.3,1-2.3,2.3v41.9c0,1.3,1,2.3,2.3,2.3c1.3,0,2.3-1,2.3-2.3V35.8
				C67.4,34.5,66.4,33.5,65.1,33.5"/>
			<g id="Group-15" transform="translate(75.348977, 20.930233)">
				<g id="Clip-14">
				</g>
				<defs>
					<filter id="Adobe_OpacityMaskFilter" filterUnits="userSpaceOnUse" x="0" y="0" width="4.7" height="59.1">
						<feColorMatrix  type="matrix" values="1 0 0 0 0  0 1 0 0 0  0 0 1 0 0  0 0 0 1 0"/>
					</filter>
				</defs>
				<mask maskUnits="userSpaceOnUse" x="0" y="0" width="4.7" height="59.1" id="mask-2_1_">
					<g class="st1">
						<polygon id="path-1_1_" class="st2" points="0,0 4.7,0 4.7,59.1 0,59.1 						"/>
					</g>
				</mask>
				<path id="Fill-13" class="st3" d="M2.3,0C1,0,0,1,0,2.3v54.4c0,1.3,1,2.3,2.3,2.3s2.3-1,2.3-2.3V2.3C4.7,1,3.6,0,2.3,0"/>
			</g>
			<g id="Group-18" transform="translate(0.000000, 33.488268)">
				<g id="Clip-17">
				</g>
				<defs>
					<filter id="Adobe_OpacityMaskFilter_1_" filterUnits="userSpaceOnUse" x="0" y="0" width="20.8" height="17.2">
						<feColorMatrix  type="matrix" values="1 0 0 0 0  0 1 0 0 0  0 0 1 0 0  0 0 0 1 0"/>
					</filter>
				</defs>
				<mask maskUnits="userSpaceOnUse" x="0" y="0" width="20.8" height="17.2" id="mask-4_1_">
					<g class="st4">
						<polygon id="path-3_1_" class="st2" points="0,0 20.8,0 20.8,17.2 0,17.2 						"/>
					</g>
				</mask>
				<path id="Fill-16" class="st5" d="M17,0.5L0.9,13c-1,0.8-1.2,2.2-0.4,3.3c0.5,0.6,1.1,0.9,1.8,0.9c0.5,0,1-0.2,1.4-0.5L19.9,4.2
					c1-0.8,1.2-2.2,0.4-3.3C19.5-0.1,18.1-0.3,17,0.5"/>
			</g>
			<g id="Group-21" transform="translate(25.116361, 0.000000)">
				<g id="Clip-20">
				</g>
				<defs>
					<filter id="Adobe_OpacityMaskFilter_2_" filterUnits="userSpaceOnUse" x="0" y="0" width="54.9" height="31.2">
						<feColorMatrix  type="matrix" values="1 0 0 0 0  0 1 0 0 0  0 0 1 0 0  0 0 0 1 0"/>
					</filter>
				</defs>
				<mask maskUnits="userSpaceOnUse" x="0" y="0" width="54.9" height="31.2" id="mask-6_1_">
					<g class="st6">
						<polygon id="path-5_1_" class="st2" points="0,0 54.9,0 54.9,31.2 0,31.2 						"/>
					</g>
				</mask>
				<path id="Fill-19" class="st7" d="M54.8,1.9c0-0.1,0-0.1-0.1-0.2c0-0.1,0-0.2-0.1-0.2c0-0.1-0.1-0.1-0.1-0.2
					c0-0.1-0.1-0.1-0.1-0.2c-0.2-0.3-0.4-0.5-0.6-0.6c-0.1,0-0.1-0.1-0.2-0.1c-0.1,0-0.1-0.1-0.2-0.1c-0.1,0-0.2,0-0.2-0.1
					c-0.1,0-0.1,0-0.2-0.1c-0.1,0-0.3,0-0.4,0c0,0,0,0,0,0h-8.4c-1.3,0-2.3,1-2.3,2.3s1,2.3,2.3,2.3h2.8L27.1,24.4l-11-7.3
					c0,0-0.1,0-0.1,0C16,17.1,16,17,15.9,17c-0.1,0-0.1-0.1-0.2-0.1c-0.1,0-0.1,0-0.2-0.1c-0.1,0-0.2,0-0.2-0.1c-0.1,0-0.1,0-0.2,0
					c-0.1,0-0.2,0-0.2,0c-0.1,0-0.1,0-0.2,0c-0.1,0-0.1,0-0.2,0c-0.1,0-0.1,0-0.2,0.1c-0.1,0-0.1,0.1-0.2,0.1
					c-0.1,0-0.1,0.1-0.2,0.1c-0.1,0-0.1,0.1-0.2,0.1c0,0,0,0-0.1,0L0.9,27c-1,0.8-1.2,2.2-0.4,3.3c0.5,0.6,1.1,0.9,1.8,0.9
					c0.5,0,1-0.2,1.4-0.5L15,21.9l11.2,7.4c0,0,0,0,0,0c0,0,0,0,0,0c0.1,0.1,0.2,0.1,0.3,0.2c0,0,0.1,0,0.1,0c0.1,0,0.2,0.1,0.3,0.1
					c0,0,0.1,0,0.1,0c0.1,0,0.3,0,0.4,0c0.1,0,0.3,0,0.4,0c0,0,0.1,0,0.1,0c0.1,0,0.3-0.1,0.4-0.1c0,0,0,0,0.1,0
					c0.1,0,0.2-0.1,0.3-0.2c0,0,0,0,0,0c0.1-0.1,0.2-0.2,0.3-0.3c0,0,0,0,0,0L50.2,7.9v2.8c0,1.3,1,2.3,2.3,2.3c1.3,0,2.3-1,2.3-2.3
					V2.3C54.9,2.2,54.9,2,54.8,1.9"/>
			</g>
		</g>
	</g>
</g>
</svg>
