<?xml version="1.0" encoding="utf-8"?>
<!-- Generator: Adobe Illustrator 25.2.0, SVG Export Plug-In . SVG Version: 6.00 Build 0)  -->
<svg version="1.1" id="Layer_1" xmlns="http://www.w3.org/2000/svg" xmlns:xlink="http://www.w3.org/1999/xlink" x="0px" y="0px"
	 viewBox="0 0 80 80" style="enable-background:new 0 0 80 80;" xml:space="preserve">
<style type="text/css">
	.st0{filter:url(#Adobe_OpacityMaskFilter);}
	.st1{fill-rule:evenodd;clip-rule:evenodd;fill:#FFFFFF;}
	.st2{mask:url(#mask-2_1_);}
	.st3{fill-rule:evenodd;clip-rule:evenodd;fill:#0065E6;}
	.st4{filter:url(#Adobe_OpacityMaskFilter_1_);}
	.st5{mask:url(#mask-4_1_);fill-rule:evenodd;clip-rule:evenodd;fill:#0065E6;}
</style>
<g id="Final">
	<g id="Product-design---desktop" transform="translate(-156.000000, -1702.000000)">
		<g id="Group-14" transform="translate(156.000000, 1702.000000)">
			<g id="Mask">
			</g>
			<defs>
				<filter id="Adobe_OpacityMaskFilter" filterUnits="userSpaceOnUse" x="0" y="0" width="79.7" height="80">
					<feColorMatrix  type="matrix" values="1 0 0 0 0  0 1 0 0 0  0 0 1 0 0  0 0 0 1 0"/>
				</filter>
			</defs>
			<mask maskUnits="userSpaceOnUse" x="0" y="0" width="79.7" height="80" id="mask-2_1_">
				<g class="st0">
					<rect id="path-1_1_" class="st1" width="80" height="80"/>
				</g>
			</mask>
			<g class="st2">
				<path id="Fill-1" class="st3" d="M3.3,31.8c0.1,0,0.3,0.1,0.4,0.1c0.4,0,0.8-0.1,1-0.4l5.6-5.2c0.6-0.6,0.7-1.6,0.1-2.2
					c-0.3-0.3-0.7-0.5-1.1-0.5c-0.4,0-0.8,0.1-1.1,0.4l-1.5,1.4c2.3-7.1,6.6-12.8,12.6-17.1c5.3-3.7,10.2-4.9,10.2-4.9
					c0.4-0.1,0.7-0.3,1-0.7c0.2-0.3,0.3-0.8,0.2-1.2c-0.2-0.8-1-1.3-1.8-1.2h0c-0.2,0-5.4,1.3-11.3,5.3C13,9,6.8,14.9,3.7,24.8
					L3,22.5c-0.1-0.4-0.4-0.7-0.7-0.9c-0.4-0.2-0.8-0.2-1.2-0.1s-0.7,0.4-0.9,0.7C0,22.5-0.1,23,0.1,23.4l2.1,7.4
					C2.3,31.2,2.7,31.6,3.3,31.8"/>
				<path id="Fill-3" class="st3" d="M79.6,55.2l-2.1-7.4c-0.1-0.5-0.6-0.9-1.1-1.1c-0.5-0.1-1.1,0-1.5,0.4l-5.6,5.2
					c-0.6,0.6-0.7,1.6-0.1,2.2c0.3,0.3,0.7,0.5,1.1,0.5c0.4,0,0.8-0.1,1.1-0.4l1.5-1.4c-2.3,7.1-6.6,12.8-12.6,17.1
					C55,74,50.1,75.2,50.1,75.2c-0.8,0.2-1.3,1-1.2,1.8c0.2,0.7,0.8,1.2,1.5,1.2c0.1,0,0.2,0,0.3,0c0.2,0,5.4-1.3,11.3-5.3
					c4.7-3.3,10.8-9.2,14-19.1l0.7,2.3c0.2,0.7,0.8,1.1,1.5,1.1c0.1,0,0.3,0,0.4-0.1c0.4-0.1,0.7-0.4,0.9-0.7
					C79.7,56,79.7,55.6,79.6,55.2"/>
				<g id="Group-7" transform="translate(0.567803, 31.141469)">
					<g id="Clip-6">
					</g>
					<defs>
						<filter id="Adobe_OpacityMaskFilter_1_" filterUnits="userSpaceOnUse" x="0" y="0" width="48.9" height="48.9">
							<feColorMatrix  type="matrix" values="1 0 0 0 0  0 1 0 0 0  0 0 1 0 0  0 0 0 1 0"/>
						</filter>
					</defs>
					<mask maskUnits="userSpaceOnUse" x="0" y="0" width="48.9" height="48.9" id="mask-4_1_">
						<g class="st4">
							<polygon id="path-3_1_" class="st1" points="0,0 48.9,0 48.9,48.9 0,48.9 							"/>
						</g>
					</mask>
					<path id="Fill-5" class="st5" d="M24.4,0C11,0,0,11,0,24.4c0,4.5,1.2,9,3.6,12.8c0.5,0.8,1.6,1.1,2.5,0.6
						c0.8-0.5,1.1-1.6,0.6-2.5c-2-3.3-3.1-7-3.1-10.9c0-11.5,9.3-20.8,20.8-20.8c11.5,0,20.8,9.3,20.8,20.8
						c0,11.5-9.3,20.8-20.8,20.8c-3.7,0-7.4-1-10.5-2.9c-0.9-0.5-2-0.2-2.5,0.6c-0.5,0.9-0.2,2,0.6,2.5c3.7,2.2,8,3.4,12.4,3.4
						c13.5,0,24.4-11,24.4-24.4C48.9,11,37.9,0,24.4,0"/>
				</g>
				<path id="Fill-8" class="st3" d="M32.1,28.2c1,0,1.8-0.8,1.8-1.8c0-5.6,2.2-11.4,6.2-15.8c4-4.5,9.2-7,14.7-7
					c11.5,0,20.8,9.3,20.8,20.8c0,11.5-9.3,20.8-20.8,20.8c-1,0-1.8,0.8-1.8,1.8c0,1,0.8,1.8,1.8,1.8c13.5,0,24.4-11,24.4-24.4
					C79.1,11,68.2,0,54.7,0c-13,0-24.4,12.3-24.4,26.4C30.3,27.4,31.1,28.2,32.1,28.2"/>
				<path id="Fill-10" class="st3" d="M29.1,61.2c0,0.2-0.1,2-2.3,2.8v-6C29.1,58.9,29.1,60.9,29.1,61.2
					C29.1,61.1,29.1,61.2,29.1,61.2z M22.3,49.3c0.2-0.3,0.6-0.7,1.2-1v4.9c-1.3-0.6-1.8-1.1-1.9-2.1C21.5,50.8,21.7,50,22.3,49.3
					L22.3,49.3z M20.1,62c-0.6-0.7-1.6-0.9-2.4-0.4c-0.7,0.6-0.9,1.6-0.4,2.4c0.1,0.1,2.3,3.1,6.1,3.6v1.5c0,0.9,0.8,1.7,1.7,1.7
					s1.7-0.8,1.7-1.7v-1.7c5.3-1.2,5.6-5.7,5.6-6.2c0-1.7-1-5.3-5-6.6l-0.6-0.2V48c1.5,0.2,2.2,0.8,2.2,0.8c0.7,0.6,1.7,0.6,2.4-0.1
					c0.3-0.3,0.5-0.8,0.4-1.2c0-0.5-0.2-0.9-0.5-1.2c-0.2-0.1-0.7-0.6-1.8-1.1c-0.8-0.3-1.7-0.6-2.7-0.7v-1c0-0.9-0.8-1.7-1.7-1.7
					s-1.7,0.8-1.7,1.7v1.2c-1.5,0.4-2.9,1.2-3.8,2.4c-1.1,1.3-1.6,3-1.4,4.4c0.4,3.2,2.9,4.4,5.3,5.2v7.4C21.4,63.7,20.1,62,20.1,62
					L20.1,62z"/>
				<path id="Fill-12" class="st3" d="M45.7,33.7l-2.1,2.1c-0.1,0.1-0.2,0.3-0.1,0.5c0.1,0.2,0.2,0.3,0.4,0.3h18
					c0.9,0,1.7-0.8,1.7-1.7c0-0.9-0.8-1.7-1.7-1.7H50c0.8-1.7,1.8-4.3,2.1-7.9h7.5c0.9,0,1.7-0.8,1.7-1.7c0-0.9-0.8-1.7-1.7-1.7
					h-7.4c0-0.3,0-0.6,0-0.9c-0.2-4.9,1.3-5.8,2.9-6c3-0.5,5.3,1.7,5.4,1.7c0.7,0.6,1.7,0.6,2.4,0c0.6-0.7,0.6-1.7,0-2.4
					c-0.1-0.1-3.5-3.4-8.2-2.6c-4.1,0.7-6,3.9-5.7,9.5c0,0.2,0,0.5,0,0.7h-4.2c-0.9,0-1.7,0.8-1.7,1.7c0,0.9,0.8,1.7,1.7,1.7h4.1
					c-0.3,2.6-0.9,4.4-1.3,5.5C46.6,32.8,45.7,33.7,45.7,33.7"/>
			</g>
		</g>
	</g>
</g>
</svg>
