<?xml version="1.0" encoding="utf-8"?>
<!-- Generator: Adobe Illustrator 25.2.0, SVG Export Plug-In . SVG Version: 6.00 Build 0)  -->
<svg version="1.1" id="Layer_1" xmlns="http://www.w3.org/2000/svg" xmlns:xlink="http://www.w3.org/1999/xlink" x="0px" y="0px"
	 viewBox="0 0 80 80" style="enable-background:new 0 0 80 80;" xml:space="preserve">
<style type="text/css">
	.st0{filter:url(#Adobe_OpacityMaskFilter);}
	.st1{fill-rule:evenodd;clip-rule:evenodd;fill:#FFFFFF;}
	.st2{mask:url(#mask-2_1_);}
	.st3{fill-rule:evenodd;clip-rule:evenodd;fill:#0065E6;}
</style>
<g id="Final">
	<g id="Product-design---desktop" transform="translate(-156.000000, -1406.000000)">
		<g id="Group-5" transform="translate(156.000000, 1406.000000)">
			<g id="Mask">
			</g>
			<defs>
				<filter id="Adobe_OpacityMaskFilter" filterUnits="userSpaceOnUse" x="0" y="1.2" width="80" height="77.5">
					<feColorMatrix  type="matrix" values="1 0 0 0 0  0 1 0 0 0  0 0 1 0 0  0 0 0 1 0"/>
				</filter>
			</defs>
			<mask maskUnits="userSpaceOnUse" x="0" y="1.2" width="80" height="77.5" id="mask-2_1_">
				<g class="st0">
					<rect id="path-1_1_" class="st1" width="80" height="80"/>
				</g>
			</mask>
			<g class="st2">
				<g transform="translate(0.000000, 1.250000)">
					<path id="Fill-1" class="st3" d="M35,66.6h10V31.9H35V66.6z M46.9,28h-5V16c0-1.1-0.9-1.9-1.9-1.9s-1.9,0.9-1.9,1.9V28h-5
						c-1.1,0-1.9,0.9-1.9,1.9v38.6c0,1.1,0.9,1.9,1.9,1.9h5v5.1c0,1.1,0.9,1.9,1.9,1.9s1.9-0.9,1.9-1.9v-5.1h5
						c1.1,0,1.9-0.9,1.9-1.9V30C48.8,28.9,48,28,46.9,28L46.9,28z"/>
					<path id="Fill-3" class="st3" d="M66.2,52.6h10V14.4h-10V52.6z M78.1,10.5h-5V1.9c0-1.1-0.9-1.9-1.9-1.9s-1.9,0.9-1.9,1.9v8.6
						h-5c-1.1,0-1.9,0.9-1.9,1.9v42.1c0,1.1,0.9,1.9,1.9,1.9h5v12.1c0,1.1,0.9,1.9,1.9,1.9s1.9-0.9,1.9-1.9V56.5h5
						c1.1,0,1.9-0.9,1.9-1.9V12.5C80,11.4,79.1,10.5,78.1,10.5L78.1,10.5z"/>
					<path id="Fill-4" class="st3" d="M3.8,45.6h10V17.9h-10V45.6z M15.8,14h-5V9C10.8,7.9,9.9,7,8.8,7S6.9,7.9,6.9,9V14h-5
						C0.9,14,0,14.9,0,16v31.5c0,1.1,0.9,1.9,1.9,1.9h5V58c0,1.1,0.9,1.9,1.9,1.9s1.9-0.9,1.9-1.9v-8.6h5c1.1,0,1.9-0.9,1.9-1.9V16
						C17.7,14.9,16.8,14,15.8,14L15.8,14z"/>
				</g>
			</g>
		</g>
	</g>
</g>
</svg>
