<?xml version="1.0" encoding="UTF-8"?>
<svg width="80px" height="80px" viewBox="0 0 80 80" version="1.1" xmlns="http://www.w3.org/2000/svg" xmlns:xlink="http://www.w3.org/1999/xlink">
    <title>Group 22</title>
    <defs>
        <polygon id="path-1" points="-1.32193997e-14 0 4.65102326 0 4.65102326 59.0697674 -1.32193997e-14 59.0697674"></polygon>
        <polygon id="path-3" points="0 0 20.7976359 0 20.7976359 17.209499 0 17.209499"></polygon>
        <polygon id="path-5" points="6.60969987e-15 0 54.8836385 0 54.8836385 31.1627907 6.60969987e-15 31.1627907"></polygon>
    </defs>
    <g id="Final" stroke="none" stroke-width="1" fill="none" fill-rule="evenodd">
        <g id="Product-design---desktop" transform="translate(-732.000000, -1084.000000)">
            <g id="Group-22" transform="translate(732.000000, 1084.000000)">
                <path d="M2.32572093,62.0244186 C1.04153488,62.0244186 0.000139534884,63.0653488 0.000139534884,64.35 L0.000139534884,77.674186 C0.000139534884,78.9588372 1.04153488,79.9997674 2.32572093,79.9997674 C3.60990698,79.9997674 4.65130233,78.9588372 4.65130233,77.674186 L4.65130233,64.35 C4.65130233,63.0653488 3.60990698,62.0244186 2.32572093,62.0244186" id="Fill-1" fill="#00BECB"></path>
                <path d="M14.8838605,54.4186047 C13.5996744,54.4186047 12.5582791,55.4595349 12.5582791,56.744186 L12.5582791,77.6744186 C12.5582791,78.9590698 13.5996744,80 14.8838605,80 C16.1680465,80 17.2094419,78.9590698 17.2094419,77.6744186 L17.2094419,56.744186 C17.2094419,55.4595349 16.1680465,54.4186047 14.8838605,54.4186047" id="Fill-3" fill="#00BECB"></path>
                <path d="M27.442,46.0465116 C26.157814,46.0465116 25.1164186,47.0874419 25.1164186,48.372093 L25.1164186,77.6744186 C25.1164186,78.9590698 26.157814,80 27.442,80 C28.726186,80 29.7675814,78.9590698 29.7675814,77.6744186 L29.7675814,48.372093 C29.7675814,47.0874419 28.726186,46.0465116 27.442,46.0465116" id="Fill-5" fill="#00BECB"></path>
                <path d="M40.0001395,37.6744186 C38.7159535,37.6744186 37.6745581,38.715814 37.6745581,40 L37.6745581,77.6744186 C37.6745581,78.9590698 38.7159535,80 40.0001395,80 C41.2847907,80 42.3257209,78.9590698 42.3257209,77.6744186 L42.3257209,40 C42.3257209,38.715814 41.2847907,37.6744186 40.0001395,37.6744186" id="Fill-7" fill="#00BECB"></path>
                <path d="M52.5582791,46.0465116 C51.2736279,46.0465116 50.2326977,47.0874419 50.2326977,48.372093 L50.2326977,77.6744186 C50.2326977,78.9590698 51.2736279,80 52.5582791,80 C53.8429302,80 54.8838605,78.9590698 54.8838605,77.6744186 L54.8838605,48.372093 C54.8838605,47.0874419 53.8429302,46.0465116 52.5582791,46.0465116" id="Fill-9" fill="#00BECB"></path>
                <path d="M65.1164186,33.4883721 C63.8317674,33.4883721 62.7908372,34.5297674 62.7908372,35.8139535 L62.7908372,77.6744186 C62.7908372,78.9590698 63.8317674,80 65.1164186,80 C66.4010698,80 67.442,78.9590698 67.442,77.6744186 L67.442,35.8139535 C67.442,34.5297674 66.4010698,33.4883721 65.1164186,33.4883721" id="Fill-11" fill="#00BECB"></path>
                <g id="Group-15" transform="translate(75.348977, 20.930233)">
                    <mask id="mask-2" fill="white">
                        <use xlink:href="#path-1"></use>
                    </mask>
                    <g id="Clip-14"></g>
                    <path d="M2.3255814,0 C1.04093023,0 -1.32193997e-14,1.04139535 -1.32193997e-14,2.3255814 L-1.32193997e-14,56.744186 C-1.32193997e-14,58.0288372 1.04093023,59.0697674 2.3255814,59.0697674 C3.61023256,59.0697674 4.65116279,58.0288372 4.65116279,56.744186 L4.65116279,2.3255814 C4.65116279,1.04139535 3.61023256,0 2.3255814,0" id="Fill-13" fill="#00BECB" mask="url(#mask-2)"></path>
                </g>
                <g id="Group-18" transform="translate(0.000000, 33.488268)">
                    <mask id="mask-4" fill="white">
                        <use xlink:href="#path-3"></use>
                    </mask>
                    <g id="Clip-17"></g>
                    <path d="M17.044093,0.489964093 L0.898046512,13.0481036 C-0.115906977,13.8369408 -0.298697674,15.297406 0.490139535,16.3113594 C0.948744186,16.9011269 1.63432558,17.209499 2.32734884,17.209499 C2.8264186,17.209499 3.3292093,17.049499 3.75339535,16.7192664 L19.899907,4.161592 C20.9133953,3.37275479 21.096186,1.91182456 20.307814,0.89787107 C19.5189767,-0.116082418 18.0580465,-0.298408 17.044093,0.489964093" id="Fill-16" fill="#00BECB" mask="url(#mask-4)"></path>
                </g>
                <g id="Group-21" transform="translate(25.116361, 0.000000)">
                    <mask id="mask-6" fill="white">
                        <use xlink:href="#path-5"></use>
                    </mask>
                    <g id="Clip-20"></g>
                    <path d="M54.8378711,1.87023256 C54.8243827,1.80139535 54.7983362,1.73767442 54.7788013,1.67116279 C54.7555455,1.59209302 54.737406,1.51255814 54.705778,1.43627907 C54.6732199,1.35767442 54.6290339,1.28651163 54.5881036,1.21255814 C54.5560106,1.15348837 54.5299641,1.09255814 54.4922897,1.03627907 C54.3220571,0.780930233 54.1029873,0.561860465 53.8481036,0.391627907 C53.7908943,0.353488372 53.7290339,0.32744186 53.669499,0.294883721 C53.5964757,0.254418605 53.525778,0.210232558 53.4476385,0.177674419 C53.3727548,0.146511628 53.2941501,0.128837209 53.2169408,0.106511628 C53.1485687,0.0860465116 53.0839176,0.06 53.0132199,0.0460465116 C52.8708943,0.0176744186 52.725778,0.00372093023 52.5806618,0.0023255814 C52.5732199,0.0023255814 52.565778,0 52.5583362,0 L44.1862432,0 C42.901592,0 41.8606618,1.04139535 41.8606618,2.3255814 C41.8606618,3.60976744 42.901592,4.65116279 44.1862432,4.65116279 L46.9439176,4.65116279 L27.145778,24.4493023 L16.173685,17.1348837 C16.149499,17.1186047 16.1229873,17.1097674 16.0983362,17.0948837 C16.0267083,17.0506977 15.9527548,17.0134884 15.877406,16.9776744 C15.8118246,16.9465116 15.7462432,16.9153488 15.6792664,16.8906977 C15.6090339,16.8655814 15.5383362,16.8465116 15.4667083,16.827907 C15.3904292,16.8083721 15.3155455,16.7893023 15.2388013,16.7772093 C15.169499,16.7665116 15.1001967,16.7627907 15.0299641,16.7581395 C14.9518246,16.7534884 14.8741501,16.7483721 14.7960106,16.7516279 C14.7239176,16.7539535 14.6527548,16.7637209 14.5806618,16.7734884 C14.5053129,16.7832558 14.4308943,16.7930233 14.3569408,16.8102326 C14.285778,16.8269767 14.2169408,16.8502326 14.1471734,16.8734884 C14.0727548,16.8986047 13.9997315,16.9237209 13.9281036,16.955814 C13.8653129,16.9846512 13.8048478,17.0190698 13.7434525,17.0534884 C13.6690339,17.0953488 13.5969408,17.1390698 13.5271734,17.1893023 C13.5039176,17.2060465 13.4783362,17.2167442 13.4560106,17.2339535 L0.89787107,27.0013953 C-0.116082418,27.7902326 -0.298408,29.2511628 0.489964093,30.2651163 C0.948568744,30.8544186 1.63415014,31.1627907 2.3271734,31.1627907 C2.82624316,31.1627907 3.32903386,31.0027907 3.75321991,30.6730233 L14.9885687,21.9344186 L26.1518246,29.3767442 C26.1532199,29.3776744 26.1546153,29.3781395 26.1560106,29.3790698 C26.1718246,29.3897674 26.1890339,29.3967442 26.2048478,29.4069767 C26.3081036,29.4716279 26.4146153,29.5274419 26.5234525,29.5744186 C26.5625222,29.5911628 26.601592,29.6046512 26.641592,29.6195349 C26.7364757,29.6544186 26.8322897,29.6827907 26.9299641,29.7046512 C26.9667083,29.7130233 27.0025222,29.7223256 27.0392664,29.7288372 C27.1727548,29.752093 27.3062432,29.7674419 27.4397315,29.7674419 C27.5727548,29.7674419 27.7048478,29.752093 27.8355455,29.7297674 C27.8653129,29.7246512 27.8946153,29.7195349 27.9243827,29.7134884 C28.0504292,29.6869767 28.1746153,29.6511628 28.2950804,29.6037209 C28.3169408,29.5948837 28.3378711,29.5837209 28.3597315,29.5744186 C28.4718246,29.5265116 28.5811269,29.4693023 28.6848478,29.4032558 C28.701592,29.3930233 28.7188013,29.384186 28.7346153,29.3734884 C28.849499,29.2967442 28.9560106,29.207907 29.057406,29.1097674 C29.0667083,29.1009302 29.0769408,29.0953488 29.0862432,29.0865116 L50.2327548,7.94 L50.2327548,10.6976744 C50.2327548,11.9818605 51.273685,13.0232558 52.5583362,13.0232558 C53.8425222,13.0232558 54.8839176,11.9818605 54.8839176,10.6976744 L54.8839176,2.3255814 C54.8839176,2.17302326 54.8676385,2.02046512 54.8378711,1.87023256" id="Fill-19" fill="#00BECB" mask="url(#mask-6)"></path>
                </g>
            </g>
        </g>
    </g>
</svg>