<svg width="849" height="193" viewBox="0 0 849 193" fill="none" xmlns="http://www.w3.org/2000/svg">
<rect width="849" height="193" fill="#0D152F"/>
<g clip-path="url(#clip0_148_5)">
<path d="M81.2559 114.552L110.299 89.22C110.299 89.22 119.932 84.6251 129.743 94.1356L99.6618 119.074C99.6552 119.074 87.4507 120.443 81.2559 114.552Z" fill="url(#paint0_linear_148_5)"/>
<path d="M147.43 89.7878C144.507 86.7557 141.592 83.6501 138.061 81.3125C137.156 80.7048 136.197 80.1638 135.205 79.6896L135.199 79.6829C133.909 79.0685 132.561 78.5876 131.179 78.267C124.482 76.9246 119.893 81.0253 119.893 81.0253L110.399 89.2001C114.869 88.8662 118.677 88.0781 123.02 90.075C126.895 91.8649 129.817 95.0841 132.68 98.1897C138.094 104.034 143.681 109.71 149.439 115.22C149.909 115.661 150.391 116.122 151.013 116.316C151.469 116.463 151.972 116.449 152.454 116.436C155.482 116.316 158.497 115.902 161.446 115.187C164.269 114.499 167.283 113.337 168.625 110.819C161.492 103.893 154.338 96.9474 147.43 89.7878Z" fill="url(#paint1_linear_148_5)"/>
<path d="M202.152 98.0362C208.723 91.3976 215.262 92.9671 218.647 94.5432C219.519 94.8371 220.333 95.2645 221.007 95.9191C218.144 92.0387 215.196 88.0916 211.196 85.2932C207.196 82.5015 201.9 81.0322 197.279 82.6751C194.846 83.5367 192.796 85.1863 190.899 86.9028C184.559 92.6665 179.442 99.5857 173.048 105.276C171.296 106.839 169.399 108.321 167.382 109.637C167.059 109.844 155.099 117.384 147.998 113.831L150.464 116.116C150.623 116.309 150.834 116.483 151.033 116.643L155.786 121.058C157.194 122.373 158.622 123.703 160.322 124.604C164.559 126.862 169.954 126.174 174.238 124.016C178.529 121.853 181.96 118.4 185.306 115.02C190.33 109.944 195.335 104.869 200.36 99.786C200.948 99.1916 201.543 98.6039 202.165 98.0429L202.152 98.0362Z" fill="url(#paint2_linear_148_5)"/>
<path d="M51.8555 98.0362C45.2839 91.3976 38.7386 92.9671 35.3602 94.5432C34.4809 94.8371 33.6744 95.2646 33 95.9191C35.8627 92.0387 38.8114 88.0916 42.8112 85.2932C46.8111 82.5015 52.1068 81.0389 56.7281 82.6752C59.1611 83.5367 61.2106 85.1864 63.108 86.9028C69.4417 92.6665 74.5655 99.5857 80.9586 105.276C82.7107 106.839 84.6081 108.321 86.6246 109.637C86.9485 109.844 98.9084 117.384 106.009 113.831L103.543 116.116C103.384 116.309 103.166 116.483 102.974 116.643L98.2209 121.058C96.8126 122.373 95.3846 123.703 93.6855 124.604C89.4476 126.862 84.0528 126.174 79.7686 124.016C75.4778 121.853 72.0466 118.4 68.7012 115.02C63.6766 109.944 58.6718 104.869 53.6472 99.786C53.0588 99.1916 52.4638 98.6039 51.8423 98.0429L51.8555 98.0362Z" fill="url(#paint3_linear_148_5)"/>
</g>
<path d="M258.745 120.993H283.78V126H253.283V72.289H258.745V120.993ZM312.608 126H307.146V72.289H312.608V126ZM397.322 126H366.597C362.703 126 359.087 125.317 355.749 123.952C352.461 122.586 349.604 120.69 347.176 118.262C344.749 115.784 342.852 112.876 341.487 109.538C340.121 106.149 339.438 102.457 339.438 98.4617C339.438 94.4663 340.121 90.7996 341.487 87.4616C342.852 84.073 344.749 81.165 347.176 78.7373C349.604 76.2591 352.461 74.3373 355.749 72.9717C359.087 71.6062 362.703 70.9235 366.597 70.9235C370.441 70.9235 374.007 71.6062 377.294 72.9717C380.632 74.3373 383.515 76.2591 385.942 78.7373C388.37 81.165 390.267 84.073 391.632 87.4616C392.998 90.7996 393.68 94.4663 393.68 98.4617C393.68 103.317 392.669 107.692 390.646 111.586C388.673 115.43 385.487 118.515 381.087 120.841V120.993H397.322V126ZM345.356 98.4617C345.356 101.446 345.836 104.303 346.797 107.034C347.758 109.715 349.149 112.092 350.97 114.165C352.79 116.239 355.016 117.908 357.645 119.172C360.275 120.386 363.259 120.993 366.597 120.993C369.885 120.993 372.843 120.386 375.473 119.172C378.103 117.908 380.329 116.239 382.149 114.165C383.97 112.092 385.361 109.715 386.322 107.034C387.283 104.303 387.763 101.446 387.763 98.4617C387.763 95.4778 387.283 92.6456 386.322 89.9651C385.361 87.234 383.97 84.8317 382.149 82.7581C380.329 80.6845 378.103 79.0408 375.473 77.827C372.843 76.5626 369.885 75.9304 366.597 75.9304C363.259 75.9304 360.275 76.5626 357.645 77.827C355.016 79.0408 352.79 80.6845 350.97 82.7581C349.149 84.8317 347.758 87.234 346.797 89.9651C345.836 92.6456 345.356 95.4778 345.356 98.4617ZM460.666 105.972C460.666 108.197 460.388 110.575 459.832 113.103C459.326 115.581 458.34 117.883 456.873 120.007C455.406 122.131 453.383 123.901 450.804 125.317C448.275 126.683 445.013 127.366 441.018 127.366C436.972 127.366 433.684 126.683 431.156 125.317C428.627 123.901 426.629 122.131 425.162 120.007C423.696 117.883 422.684 115.581 422.128 113.103C421.622 110.575 421.369 108.197 421.369 105.972V72.289H426.831V105.365C426.831 107.945 427.084 110.17 427.59 112.041C428.096 113.862 428.753 115.404 429.562 116.669C430.422 117.933 431.358 118.945 432.369 119.703C433.431 120.411 434.468 120.968 435.48 121.372C436.542 121.777 437.553 122.055 438.514 122.207C439.475 122.308 440.31 122.359 441.018 122.359C441.675 122.359 442.484 122.308 443.445 122.207C444.457 122.055 445.468 121.777 446.48 121.372C447.542 120.968 448.579 120.411 449.59 119.703C450.652 118.945 451.588 117.933 452.397 116.669C453.257 115.404 453.94 113.862 454.445 112.041C454.951 110.17 455.204 107.945 455.204 105.365V72.289H460.666V105.972ZM495.681 126H490.218V72.289H495.681V126ZM530.856 120.993H541.477C545.574 120.993 549.114 120.386 552.098 119.172C555.132 117.908 557.636 116.264 559.608 114.241C561.631 112.168 563.123 109.841 564.084 107.262C565.045 104.632 565.526 101.926 565.526 99.1445C565.526 96.3628 565.045 93.6824 564.084 91.103C563.123 88.4731 561.631 86.1466 559.608 84.1236C557.636 82.05 555.132 80.4063 552.098 79.1925C549.114 77.9281 545.574 77.2959 541.477 77.2959H530.856V120.993ZM525.394 72.289H543.222C546.56 72.289 549.898 72.8453 553.236 73.958C556.624 75.0706 559.659 76.7649 562.339 79.0408C565.07 81.2661 567.27 84.073 568.939 87.4616C570.608 90.7996 571.443 94.6939 571.443 99.1445C571.443 103.646 570.608 107.565 568.939 110.903C567.27 114.241 565.07 117.048 562.339 119.324C559.659 121.549 556.624 123.218 553.236 124.331C549.898 125.444 546.56 126 543.222 126H525.394V72.289ZM603.777 126H598.314V72.289H603.777V126ZM651.469 126H646.007V77.2959H628.028V72.289H669.449V77.2959H651.469V126ZM710.963 126H705.501V102.862L685.397 72.289H692.224L708.232 97.6272L724.239 72.289H731.066L710.963 102.862V126Z" fill="url(#paint4_linear_148_5)"/>
<path d="M738.475 125.15C738.891 125.15 739.241 125.3 739.525 125.6C739.825 125.883 739.975 126.233 739.975 126.65C739.975 127.066 739.816 127.425 739.5 127.725C739.2 128.008 738.858 128.15 738.475 128.15C738.091 128.15 737.741 128.008 737.425 127.725C737.125 127.425 736.975 127.066 736.975 126.65C736.975 126.233 737.116 125.883 737.4 125.6C737.7 125.3 738.058 125.15 738.475 125.15Z" fill="white"/>
<path d="M749.408 110.3H752.058L762.308 125H762.358V110.3H764.458V128H761.808L751.558 113.3H751.508V128H749.408V110.3Z" fill="white"/>
<path d="M774.116 110.3H785.241V112.25H776.216V117.8H784.641V119.75H776.216V126.05H785.691V128H774.116V110.3Z" fill="white"/>
<path d="M806.06 112.25H800.21V128H798.11V112.25H792.26V110.3H806.06V112.25Z" fill="white"/>
<defs>
<linearGradient id="paint0_linear_148_5" x1="105.494" y1="80.3657" x2="105.494" y2="137.103" gradientUnits="userSpaceOnUse">
<stop stop-color="#0539B7"/>
<stop offset="0.4844" stop-color="#0085FF"/>
</linearGradient>
<linearGradient id="paint1_linear_148_5" x1="139.518" y1="126.032" x2="139.518" y2="55.8792" gradientUnits="userSpaceOnUse">
<stop offset="0.0507" stop-color="#0539B7"/>
<stop offset="0.6823" stop-color="#0085FF"/>
</linearGradient>
<linearGradient id="paint2_linear_148_5" x1="147.99" y1="103.997" x2="221" y2="103.997" gradientUnits="userSpaceOnUse">
<stop stop-color="#0085FF"/>
<stop offset="0.8125" stop-color="#023DC7"/>
</linearGradient>
<linearGradient id="paint3_linear_148_5" x1="106.011" y1="103.998" x2="33.0005" y2="103.998" gradientUnits="userSpaceOnUse">
<stop offset="0.1011" stop-color="#023DC7"/>
<stop offset="0.7811" stop-color="#0085FF"/>
</linearGradient>
<linearGradient id="paint4_linear_148_5" x1="234.655" y1="98.7853" x2="859.016" y2="98.7853" gradientUnits="userSpaceOnUse">
<stop stop-color="white" stop-opacity="0.65"/>
<stop offset="0.606779" stop-color="white"/>
<stop offset="1" stop-color="white" stop-opacity="0.65"/>
</linearGradient>
<clipPath id="clip0_148_5">
<rect width="188" height="48" fill="white" transform="translate(33 78)"/>
</clipPath>
</defs>
</svg>
