<svg xmlns="http://www.w3.org/2000/svg" viewBox="0 0 64 62"><defs><style>.cls-1{fill:#555;}</style></defs><g id="Layer_2" data-name="Layer 2"><g id="Layer_1-2" data-name="Layer 1"><path class="cls-1" d="M14,30c1.85,0,2.74.46,3.22,1.06A5.57,5.57,0,0,1,18,34.5h2a7.36,7.36,0,0,0-1.22-4.69C17.76,28.54,16.15,28,14,28Zm-4,4.5a5.57,5.57,0,0,1,.78-3.44C11.26,30.46,12.15,30,14,30V28c-2.15,0-3.76.54-4.78,1.81A7.36,7.36,0,0,0,8,34.5ZM14,40a3.44,3.44,0,0,1-2.82-1.53,6.75,6.75,0,0,1-1.18-4H8a8.76,8.76,0,0,0,1.57,5.16A5.46,5.46,0,0,0,14,42Zm4-5.5a6.75,6.75,0,0,1-1.18,4A3.44,3.44,0,0,1,14,40v2a5.46,5.46,0,0,0,4.43-2.34A8.76,8.76,0,0,0,20,34.5Z"/><path class="cls-1" d="M5.55,44.83l6-4-1.1-1.66-6,4ZM6,46H6Zm1,2c-.06,0-.29,0-.55-.43A2.79,2.79,0,0,1,6,46H4a4.77,4.77,0,0,0,.8,2.71A2.79,2.79,0,0,0,7,50Zm14,0H7v2H21Zm1-2a2.79,2.79,0,0,1-.45,1.57c-.26.38-.49.43-.55.43v2a2.79,2.79,0,0,0,2.2-1.29A4.77,4.77,0,0,0,24,46Zm1-2h0Zm-6.55-3.17,6,4,1.1-1.66-6-4ZM5,44l-.55-.83L4,43.46V44Zm18,0h1v-.54l-.45-.29Z"/><path class="cls-1" d="M26,27V51h2V27Zm-1-1a1,1,0,0,1,1,1h2a3,3,0,0,0-3-3ZM3,26H25V24H3ZM2,27a1,1,0,0,1,1-1V24a3,3,0,0,0-3,3ZM2,51V27H0V51Zm1,1a1,1,0,0,1-1-1H0a3,3,0,0,0,3,3Zm5,0H3v2H8Zm16.45,8.11-16-8-.9,1.78,16,8Zm-5.34-6.66,4,8,1.78-.9-4-8ZM25,52H20v2h5Zm1-1a1,1,0,0,1-1,1v2a3,3,0,0,0,3-3ZM8,53l.45-.89A1,1,0,0,0,8,52Zm16,8-.45.89a1,1,0,0,0,1.34-1.34Zm-4-8V52a1,1,0,0,0-.89,1.45Z"/><path class="cls-1" d="M50,20c1.85,0,2.74.46,3.22,1.06A5.57,5.57,0,0,1,54,24.5h2a7.36,7.36,0,0,0-1.22-4.69C53.76,18.54,52.15,18,50,18Zm-4,4.5a5.57,5.57,0,0,1,.78-3.44C47.26,20.46,48.15,20,50,20V18c-2.15,0-3.76.54-4.78,1.81A7.36,7.36,0,0,0,44,24.5ZM50,30a3.44,3.44,0,0,1-2.82-1.53,6.75,6.75,0,0,1-1.18-4H44a8.76,8.76,0,0,0,1.57,5.16A5.46,5.46,0,0,0,50,32Zm4-5.5a6.75,6.75,0,0,1-1.18,4A3.44,3.44,0,0,1,50,30v2a5.46,5.46,0,0,0,4.43-2.34A8.76,8.76,0,0,0,56,24.5Z"/><path class="cls-1" d="M41.55,34.83l6-4-1.1-1.66-6,4ZM42,36h0Zm1,2c-.06,0-.29,0-.55-.43A2.79,2.79,0,0,1,42,36H40a4.77,4.77,0,0,0,.8,2.71A2.79,2.79,0,0,0,43,40Zm14,0H43v2H57Zm1-2a2.79,2.79,0,0,1-.45,1.57c-.26.38-.49.43-.55.43v2a2.79,2.79,0,0,0,2.2-1.29A4.77,4.77,0,0,0,60,36Zm1-2h0Zm-6.55-3.17,6,4,1.1-1.66-6-4ZM41,34l-.55-.83-.45.29V34Zm18,0h1v-.54l-.45-.29Z"/><path class="cls-1" d="M38,41V32H36v9Zm1,1a1,1,0,0,1-1-1H36a3,3,0,0,0,3,3Zm5,0H39v2h5Zm-3.11,9.45,4-8-1.78-.9-4,8Zm14.66-9.34-16,8,.9,1.78,16-8ZM61,42H56v2h5Zm1-1a1,1,0,0,1-1,1v2a3,3,0,0,0,3-3Zm0-24V41h2V17Zm-1-1a1,1,0,0,1,1,1h2a3,3,0,0,0-3-3ZM44,16H61V14H44Zm0,27,.89.45A1,1,0,0,0,44,42Zm-4,8-.89-.45a1,1,0,0,0,1.34,1.34Zm16-8V42a1,1,0,0,0-.45.11Z"/><path class="cls-1" d="M28,6c1.85,0,2.74.46,3.22,1.06A5.57,5.57,0,0,1,32,10.5h2a7.36,7.36,0,0,0-1.22-4.69C31.76,4.54,30.15,4,28,4Zm-4,4.5a5.57,5.57,0,0,1,.78-3.44C25.26,6.46,26.15,6,28,6V4c-2.15,0-3.76.54-4.78,1.81A7.36,7.36,0,0,0,22,10.5ZM28,16a3.44,3.44,0,0,1-2.82-1.53,6.75,6.75,0,0,1-1.18-4H22a8.76,8.76,0,0,0,1.57,5.16A5.46,5.46,0,0,0,28,18Zm4-5.5a6.75,6.75,0,0,1-1.18,4A3.44,3.44,0,0,1,28,16v2a5.46,5.46,0,0,0,4.43-2.34A8.76,8.76,0,0,0,34,10.5Z"/><path class="cls-1" d="M19.55,20.83l6-4-1.1-1.66-6,4ZM20,22V20H18v2Zm-1-2-.55-.83-.45.29V20Z"/><path class="cls-1" d="M35,24H30v2h5Zm1-2a2.79,2.79,0,0,1-.45,1.57c-.26.38-.49.43-.55.43v2a2.79,2.79,0,0,0,2.2-1.29A4.77,4.77,0,0,0,38,22Zm1-2h0Zm-6.55-3.17,6,4,1.1-1.66-6-4ZM37,20h1v-.54l-.45-.29Z"/><path class="cls-1" d="M33.17,28.45l-4,6,1.66,1.1,4-6ZM39,28H34v2h5Zm1-1a1,1,0,0,1-1,1v2a3,3,0,0,0,3-3ZM40,3V27h2V3ZM39,2a1,1,0,0,1,1,1h2a3,3,0,0,0-3-3ZM17,2H39V0H17ZM16,3a1,1,0,0,1,1-1V0a3,3,0,0,0-3,3Zm0,19V3H14V22Zm18,7V28a1,1,0,0,0-.83.45Z"/><rect class="cls-1" x="39" y="56" width="2" height="2"/><rect class="cls-1" x="35" y="56" width="2" height="2"/><rect class="cls-1" x="31" y="56" width="2" height="2"/><rect class="cls-1" x="43" y="56" width="2" height="2"/></g></g></svg>