<svg xmlns="http://www.w3.org/2000/svg" viewBox="0 0 64 58"><defs><style>.cls-1{fill:#555;}</style></defs><g id="Layer_2" data-name="Layer 2"><g id="Layer_1-2" data-name="Layer 1"><path class="cls-1" d="M50.68,25.73a20.2,20.2,0,0,0-1.57-5.05l-1.82.84a18.15,18.15,0,0,1,1.43,4.55Zm-4.91,4.09,4.5-3.1-1.14-1.64-4.5,3.1Zm4.5,1.46-4.5-3.1-1.14,1.64,4.5,3.1Zm-1.26,6a20.24,20.24,0,0,0,1.67-5l-2-.34a18.48,18.48,0,0,1-1.53,4.55Zm-6.45.38,5.5.2.08-2-5.5-.2Zm2.78,3.87-1.8-5.2L41.65,37l1.8,5.2Zm-4.57,4.21a18.19,18.19,0,0,0,4.34-3.17l-1.42-1.42A16.41,16.41,0,0,1,39.83,44Zm-5.38-3.39,4.3,3.3,1.22-1.58-4.3-3.3Zm.07,4.69,1.5-5.2L35,41.32l-1.5,5.2ZM32,48a20.16,20.16,0,0,0,2.62-.21l-.24-2A18.78,18.78,0,0,1,32,46Zm-2.62-.21A21.89,21.89,0,0,0,32,48V46a20.2,20.2,0,0,1-2.38-.19ZM27,41.88l1.5,5.2,1.92-.56L29,41.32Zm-2.73,3.81,4.3-3.3-1.22-1.58-4.3,3.3Zm-5.42-3.08a18.19,18.19,0,0,0,4.34,3.17L24.17,44a16.41,16.41,0,0,1-3.86-2.83Zm1.56-6.24-1.8,5.2,1.89.66,1.8-5.2ZM15.94,37.9l5.5-.2-.08-2-5.5.2Zm-2.62-5.63a16.76,16.76,0,0,0,1.7,5.1l1.76-.94a15.2,15.2,0,0,1-1.5-4.5Zm4.91-4.09-4.5,3.1,1.14,1.64,4.5-3.1Zm-4.5-1.46,4.5,3.1,1.14-1.64-4.5-3.1Zm1.26-6a20.24,20.24,0,0,0-1.67,5.05l2,.34a18.48,18.48,0,0,1,1.53-4.55Zm6.45-.38-5.5-.2-.08,2,5.5.2Zm-2.79-3.87,1.8,5.2L22.34,21l-1.8-5.2Zm4.58-4.21a18.19,18.19,0,0,0-4.34,3.17l1.42,1.42A16.41,16.41,0,0,1,24.17,14Zm5.38,3.39-4.3-3.3-1.22,1.58,4.3,3.3Zm-.07-4.69L27,16.12l1.92.56,1.5-5.2ZM32,10a20.16,20.16,0,0,0-2.62.21l.24,2A18.78,18.78,0,0,1,32,12Zm2.71.21A23.1,23.1,0,0,0,32,10v2a22.38,22.38,0,0,1,2.49.19Zm2.35,5.91-1.5-5.2-1.92.56,1.5,5.2Zm2.73-3.81-4.3,3.3,1.22,1.58,4.3-3.3Zm5.42,3.08a18.19,18.19,0,0,0-4.34-3.17L39.93,14a16.41,16.41,0,0,1,3.86,2.83Zm-1.57,6.24,1.8-5.2-1.89-.66L41.75,21Zm4.52-1.53-5.5.2.08,2,5.5-.2Zm1.54,5.8.57.82a1,1,0,0,0,.41-1ZM45.2,29l-.57-.82a1,1,0,0,0,0,1.64Zm4.5,3.1,1,.17a1,1,0,0,0-.41-1Zm-1.6,4.8,0,1a1,1,0,0,0,.95-.58Zm-5.5-.2,0-1a1,1,0,0,0-.84.41,1,1,0,0,0-.15.92Zm1.8,5.2.71.71a1,1,0,0,0,.23-1Zm-4.1,3-.61.79a1,1,0,0,0,1.08.09ZM36,41.6l.61-.79a1,1,0,0,0-.92-.16,1,1,0,0,0-.65.67Zm-1.5,5.2.12,1a1,1,0,0,0,.84-.71Zm-5,0-1,.28a1,1,0,0,0,.84.71ZM28,41.6l1-.28a1,1,0,0,0-.65-.67,1,1,0,0,0-.92.16Zm-4.3,3.3-.47.88a1,1,0,0,0,1.08-.09Zm-4.1-3-1-.33a1,1,0,0,0,.24,1Zm1.8-5.2.94.33a1,1,0,0,0-.14-.92,1,1,0,0,0-.84-.41Zm-5.5.2-.88.47a1,1,0,0,0,.92.53Zm-1.6-4.8-.57-.82a1,1,0,0,0-.41,1ZM18.8,29l.57.82a1,1,0,0,0,0-1.64Zm-4.5-3.1-1-.17a1,1,0,0,0,.41,1Zm1.6-4.8,0-1a1,1,0,0,0-.95.58Zm5.5.2,0,1a1,1,0,0,0,.84-.41,1,1,0,0,0,.14-.92Zm-1.8-5.2-.71-.71a1,1,0,0,0-.24,1Zm4.1-3,.61-.79a1,1,0,0,0-1.08-.09ZM28,16.4l-.61.79a1,1,0,0,0,.92.16,1,1,0,0,0,.65-.67Zm1.5-5.2-.12-1a1,1,0,0,0-.84.71Zm5.1,0,1-.28a1,1,0,0,0-.85-.71Zm1.5,5.2-1,.28a1,1,0,0,0,.65.67,1,1,0,0,0,.92-.16Zm4.3-3.3.47-.88a1,1,0,0,0-1.08.09Zm4.1,3,.94.33a1,1,0,0,0-.23-1Zm-1.8,5.2-1-.33a1,1,0,0,0,.15.92,1,1,0,0,0,.84.41Zm5.5-.2.91-.42a1,1,0,0,0-1-.58Z"/><path class="cls-1" d="M4,27a2,2,0,0,1,2,2H8a4,4,0,0,0-4-4ZM2,29a2,2,0,0,1,2-2V25a4,4,0,0,0-4,4Zm2,2a2,2,0,0,1-2-2H0a4,4,0,0,0,4,4Zm2-2a2,2,0,0,1-2,2v2a4,4,0,0,0,4-4Z"/><path class="cls-1" d="M60,27a2,2,0,0,1,2,2h2a4,4,0,0,0-4-4Zm-2,2a2,2,0,0,1,2-2V25a4,4,0,0,0-4,4Zm2,2a2,2,0,0,1-2-2H56a4,4,0,0,0,4,4Zm2-2a2,2,0,0,1-2,2v2a4,4,0,0,0,4-4Z"/><path class="cls-1" d="M55,12H49v2h6ZM54,7v6h2V7Zm1,6v1a1,1,0,0,0,1-1Z"/><path class="cls-1" d="M9,46h6V44H9Zm1,5V45H8v6ZM9,45V44a1,1,0,0,0-1,1Z"/><rect class="cls-1" x="5" y="38" width="2" height="2"/><rect class="cls-1" x="57" y="18" width="2" height="2"/><path class="cls-1" d="M32,56A27,27,0,0,1,9.82,44.43L8.18,45.57A29,29,0,0,0,32,58ZM58.91,31.79A27.09,27.09,0,0,1,32,56v2A29.07,29.07,0,0,0,60.89,32Z"/><path class="cls-1" d="M32,2A27,27,0,0,1,54.18,13.57l1.64-1.14A29,29,0,0,0,32,0ZM5.19,26.11A27,27,0,0,1,32,2V0A29,29,0,0,0,3.21,25.89Z"/><path class="cls-1" d="M32,24a1.94,1.94,0,0,1,2,2h2a4,4,0,0,0-4-4Zm-2,2a1.94,1.94,0,0,1,2-2V22a4,4,0,0,0-4,4Zm2,3,.4-.92h0l-.08,0-.3-.15a8.07,8.07,0,0,1-.92-.57,3.76,3.76,0,0,1-.82-.75A1,1,0,0,1,30,26H28a2.93,2.93,0,0,0,.68,1.8A5.79,5.79,0,0,0,29.92,29a10.46,10.46,0,0,0,1.14.7c.16.09.29.15.38.19l.11.06h.05Zm4,3a2.93,2.93,0,0,0-.68-1.8,5.79,5.79,0,0,0-1.24-1.15,10.46,10.46,0,0,0-1.14-.7c-.16-.09-.29-.15-.38-.19l-.11-.06H32.4L32,29l-.4.92h0l.08,0,.3.15a8.07,8.07,0,0,1,.92.57,3.76,3.76,0,0,1,.82.75A1,1,0,0,1,34,32Zm-4,4a4,4,0,0,0,4-4H34a1.94,1.94,0,0,1-2,2Zm-4-4a4,4,0,0,0,4,4V34a1.94,1.94,0,0,1-2-2Z"/><rect class="cls-1" x="31" y="20" width="2" height="3"/><rect class="cls-1" x="31" y="35" width="2" height="3"/><rect class="cls-1" x="38" y="28" width="2" height="2"/><rect class="cls-1" x="24" y="28" width="2" height="2"/></g></g></svg>