<svg xmlns="http://www.w3.org/2000/svg" viewBox="0 0 457.13 438.93"><defs><style>.cls-1{fill:#638dff;}.cls-2{fill:#fff;}.cls-3{fill:#0160e6;}</style></defs><g id="Layer_2" data-name="Layer 2"><g id="Layer_1-2" data-name="Layer 1"><path class="cls-1" d="M301.86,49.06h-7.27V45.21h7.27Zm14.54,0h-7.27V45.21h7.27Zm14.51,0h-7.27V45.21h7.27Zm14.51,0h-7.27V45.21h7.27Zm14.51,0h-7.27V45.21h7.27Zm14.51,0h-7.28V45.21h7.28Zm14.5,0h-7.27V45.21h7.27Zm1.8,13.48h-3.63V54.83h3.63Zm0,15.39h-3.63V70.22h3.63Zm0,15.39h-3.63V85.6h3.63Zm-186.22,195h-3.64v-7.71h3.64Zm140.29,2.56h-3.64v-7.71h3.64ZM204.52,303.66h-3.64v-7.72h3.64Zm140.29,2.56h-3.64V298.5h3.64ZM204.52,319h-3.64v-7.71h3.64Zm140.29,2.56h-3.64v-7.71h3.64ZM204.52,334.43h-3.64v-7.71h3.64Zm0,15.39h-3.64v-7.71h3.64Zm0,15.39h-3.64v-7.72h3.64Zm0,15.38h-3.64v-7.71h3.64Zm0,15.39h-3.64v-7.71h3.64Z"/><path class="cls-1" d="M258.19,435.12H394.38V328H258.19ZM398,438.93H254.59V324.16H398Z"/><path class="cls-1" d="M291,380.59a16.36,16.36,0,0,1-7.74-1.94,18,18,0,0,1-8-8.94c-.11-.27-.22-.53-.32-.8a19,19,0,0,1-1.19-6.61c0-10.08,7.74-18.25,17.21-18.25h.75a17.32,17.32,0,0,1,15,10.81,18.89,18.89,0,0,1,1.47,7.44C308.2,372.42,300.46,380.59,291,380.59ZM312,351a23.62,23.62,0,0,0-20.27-13.63H291c-13,0-23.61,11.23-23.61,25.05a26.56,26.56,0,0,0,1.76,9.51c.11.3.25.61.36.91a24.55,24.55,0,0,0,11.23,12.14,22.53,22.53,0,0,0,10.23,2.49c13,0,23.61-11.23,23.61-25.05A25.59,25.59,0,0,0,312,351Z"/><path class="cls-2" d="M291.71,337.33v6.76H291c-9.5,0-17.21,8.21-17.21,18.25a19.25,19.25,0,0,0,1.48,7.41l-5.72,3a26.33,26.33,0,0,1-2.16-10.43c0-13.78,10.58-25,23.61-25C291.2,337.29,291.46,337.33,291.71,337.33Z"/><path class="cls-3" d="M312,351l-5.3,3.94A17.27,17.27,0,0,0,291,344.05v-6.76C300.1,337.29,308.05,342.87,312,351Z"/><ellipse class="cls-3" cx="339.19" cy="347.79" rx="3.56" ry="3.78"/><rect class="cls-3" x="350.14" y="346.04" width="30.89" height="3.51"/><ellipse class="cls-1" cx="339.19" cy="360.24" rx="3.56" ry="3.78"/><rect class="cls-1" x="350.14" y="358.49" width="30.89" height="3.51"/><ellipse class="cls-2" cx="339.19" cy="372.69" rx="3.56" ry="3.78"/><rect class="cls-2" x="350.14" y="370.93" width="30.89" height="3.51"/><path class="cls-1" d="M276.19,426.07s23.58-26.81,42.7-7.3l39.53-11.11s12.09-3.28,20,9.47a21,21,0,0,0,9.58,8.94Z"/><path class="cls-3" d="M264.06,426.07h125s-15.52-2.64-29.49-19.63c-2.77-3.36-8.42-9.58-17.6-10.54-8.06-.87-17.86,3.25-28.08,17.34-3.56,4.88-10.48,13.78-23,4.31S264.06,426.07,264.06,426.07Z"/><path class="cls-1" d="M120.49,268.72H288.58V3.82H120.49Zm171.72,3.86H116.86V0H292.21Z"/><path class="cls-2" d="M204.05,58.61a26.2,26.2,0,0,0-21.06,11A28.69,28.69,0,0,0,177.7,83a29.8,29.8,0,0,0,1.08,12.6,28.16,28.16,0,0,0,2.66,6,26.46,26.46,0,0,0,19,13.1c.4.07.76.11,1.12.15a7.93,7.93,0,0,0,1,.08A25.09,25.09,0,0,0,213.7,113,28,28,0,0,0,230.33,90.6a29.07,29.07,0,0,0-5.19-20.84,26.1,26.1,0,0,0-17.53-10.88A22.46,22.46,0,0,0,204.05,58.61Zm0,59.56c-.58,0-1.15,0-1.73,0-.36,0-.72,0-1.08-.07s-.83-.08-1.26-.16a29.37,29.37,0,0,1-21.1-14.54,35.65,35.65,0,0,1-3-6.72,33,33,0,0,1-1.23-14,32.49,32.49,0,0,1,5.91-14.93,28.56,28.56,0,0,1,46.94.19,32.48,32.48,0,0,1,5.76,23.21A31.1,31.1,0,0,1,214.74,116,28,28,0,0,1,204.05,118.17ZM204,27.76a54.27,54.27,0,0,0-41.84,20.16,60.44,60.44,0,0,0-13.28,30.89,62.12,62.12,0,0,0,4.43,32.26,60.58,60.58,0,0,0,2.84,5.77c8.71,15.61,23.44,26,40.32,28.44l.79.12c.47.07.94.11,1.37.15a52.85,52.85,0,0,0,30-5.84c16.59-8.75,28-25.51,30.52-44.9,4.14-32.27-17.2-62.09-47.59-66.48A51.33,51.33,0,0,0,204,27.76ZM204,149c-1.91,0-3.81-.11-5.72-.3-.47,0-1-.12-1.44-.16l-.83-.11c-17.82-2.6-33.3-13.52-42.48-30a63,63,0,0,1-3-6.11,65.85,65.85,0,0,1-4.68-34,63.76,63.76,0,0,1,14-32.57C172.94,30,192.42,22.3,212,25.12c32,4.66,54.57,36.09,50.18,70.11-2.63,20.42-14.65,38.14-32.15,47.34A56.08,56.08,0,0,1,204,149Z"/><path class="cls-1" d="M229.28,141.12a53.81,53.81,0,0,1-30.85,6c-.47,0-.93-.11-1.4-.15l4.32-30.54c.36,0,.68.07,1,.07a25.76,25.76,0,0,0,11.81-2Z"/><path class="cls-1" d="M198.79,145.55a52.24,52.24,0,0,0,28.37-5.12l-13.57-24a27.9,27.9,0,0,1-10.91,1.68ZM204,149c-1.91,0-3.81-.11-5.72-.3-.47,0-1-.12-1.44-.16l-1.55-.19,4.79-33.67,1.44.15a7.93,7.93,0,0,0,1,.08A25.09,25.09,0,0,0,213.7,113l1.18-.5,16.56,29.29-1.47.76A55.87,55.87,0,0,1,204,149Z"/><path class="cls-2" d="M151.92,111.72l25.42-15.66a29.91,29.91,0,0,0,2.8,6.38,28,28,0,0,0,20.06,13.82,20.8,20.8,0,0,0,2.23.23l-4,30.62c-.72-.07-1.48-.15-2.2-.26-18-2.6-32.83-13.83-41.43-29.21A59.1,59.1,0,0,1,151.92,111.72Z"/><path class="cls-2" d="M153.86,112.37c.69,1.53,1.44,3,2.27,4.47,8.75,15.61,23.44,26,40.32,28.44l.72.12L200.7,118a4.41,4.41,0,0,0-.72-.08,29.4,29.4,0,0,1-21.13-14.54,35.93,35.93,0,0,1-2.34-4.89Zm45.9,36.5-1.44-.15-2.26-.27c-17.82-2.6-33.3-13.52-42.52-30a56.57,56.57,0,0,1-3-6.11L150,111,178.2,93.66l.58,1.87a27.32,27.32,0,0,0,2.66,6,26.51,26.51,0,0,0,19,13.1c.69.11,1.37.15,2.09.23l1.62.11Z"/><path class="cls-3" d="M147.38,78.54A62.3,62.3,0,0,1,161,46.81L181.8,68.54a30.8,30.8,0,0,0-5.62,14.16,31.11,31.11,0,0,0,4,19.7L154.8,117.6A63.27,63.27,0,0,1,147.38,78.54Z"/><path class="cls-3" d="M148.86,78.77a61.35,61.35,0,0,0,6.52,36.69l22.68-13.59a32.87,32.87,0,0,1,1.72-33.11L161.1,49.18A60.7,60.7,0,0,0,148.86,78.77Zm5.44,41-.76-1.33a64.62,64.62,0,0,1-7.67-40.13,63.73,63.73,0,0,1,14-32.57l1-1.26,22.86,23.94L183,69.57A28.79,28.79,0,0,0,177.66,83a29.65,29.65,0,0,0,3.74,18.63l.83,1.41Z"/><path class="cls-1" d="M140,247.22H269.21V171.09H140ZM272.84,251H136.37V167.23H272.84Z"/><rect class="cls-2" x="152.24" y="185.94" width="12.71" height="13.48"/><rect class="cls-3" x="183.67" y="185.94" width="12.71" height="13.48"/><rect class="cls-1" x="216.94" y="185.94" width="12.71" height="13.48"/><rect class="cls-2" x="150.73" y="210.99" width="56.84" height="3.21"/><rect class="cls-2" x="150.73" y="222.52" width="109.44" height="3.21"/><rect class="cls-2" x="150.73" y="234.05" width="109.44" height="3.21"/><path class="cls-1" d="M3.64,118.48H85.25V58.84H3.64Zm85.24,3.85H0V55H88.88Z"/><rect class="cls-2" x="14.22" y="74.87" width="29.02" height="3.21"/><rect class="cls-2" x="14.22" y="87.05" width="60.48" height="3.21"/><rect class="cls-2" x="14.22" y="99.23" width="60.48" height="3.21"/><path class="cls-1" d="M315,275.44H453.49V102.29H315Zm142.09,3.82H311.4V98.43H457.13Z"/><path class="cls-2" d="M337.1,146.54h94.32V128H337.1Zm97.35,3.21H334.08v-25H434.45Z"/><rect class="cls-2" x="337.39" y="173.31" width="93.71" height="3.21"/><path class="cls-2" d="M378.07,183.08a8.34,8.34,0,1,0-7.85-8.32A8.1,8.1,0,0,0,378.07,183.08Z"/><path class="cls-2" d="M378.07,168a6.73,6.73,0,1,0,6.34,6.72A6.54,6.54,0,0,0,378.07,168Zm0,16.68c-5.18,0-9.36-4.46-9.36-9.92a9.66,9.66,0,0,1,9.36-9.93c5.19,0,9.36,4.47,9.36,9.93S383.22,184.68,378.07,184.68Z"/><rect class="cls-2" x="337.39" y="198.31" width="93.71" height="3.21"/><path class="cls-3" d="M408.28,208.09a8.34,8.34,0,1,0-7.85-8.32A8.09,8.09,0,0,0,408.28,208.09Z"/><path class="cls-3" d="M408.28,193a6.73,6.73,0,1,0,6.33,6.72A6.54,6.54,0,0,0,408.28,193Zm0,16.68a9.94,9.94,0,0,1,0-19.85c5.18,0,9.36,4.47,9.36,9.93A9.64,9.64,0,0,1,408.28,209.69Z"/><rect class="cls-2" x="337.39" y="223.32" width="93.71" height="3.21"/><path class="cls-1" d="M364.14,233.1a8.34,8.34,0,1,0-7.85-8.33A8.1,8.1,0,0,0,364.14,233.1Z"/><path class="cls-1" d="M364.14,218a6.73,6.73,0,1,0,6.34,6.72A6.55,6.55,0,0,0,364.14,218Zm0,16.68c-5.18,0-9.36-4.47-9.36-9.93a9.66,9.66,0,0,1,9.36-9.92c5.18,0,9.36,4.46,9.36,9.92A9.64,9.64,0,0,1,364.14,234.7Z"/><rect class="cls-2" x="337.39" y="248.98" width="93.71" height="3.21"/><path class="cls-2" d="M395,250.43a7.86,7.86,0,1,1-7.85-8.32A8.1,8.1,0,0,1,395,250.43Z"/><path class="cls-2" d="M387.14,243.67a6.73,6.73,0,1,0,6.34,6.72A6.54,6.54,0,0,0,387.14,243.67Zm0,16.69c-5.18,0-9.36-4.47-9.36-9.93s4.22-9.93,9.36-9.93,9.36,4.47,9.36,9.93S392.29,260.36,387.14,260.36Z"/></g></g></svg>