<svg xmlns="http://www.w3.org/2000/svg" viewBox="0 0 457.32 348.36"><defs><style>.cls-1{fill:#0165e6;}.cls-2{fill:#fff;}</style></defs><g id="Layer_2" data-name="Layer 2"><g id="Layer_1-2" data-name="Layer 1"><path class="cls-1" d="M407.48,5.16,51.1,76.6C37,79.42,29.94,80.84,25.51,85.78s-5.09,12.11-6.38,26.44L2.18,299.72c-2.26,25-3.39,37.5,4.27,44.21s19.9,3.94,44.38-1.59L408,261.66c13.7-3.1,20.55-4.64,24.84-9.54s4.92-11.89,6.19-25.88L455.18,48c2.2-24.44,3.31-36.66-4.15-43.36S431.54.33,407.48,5.16Z"/><path d="M19.62,112.26a159.9,159.9,0,0,1,2-16.68c.86-4.15,2.11-7.08,4.25-9.47l-.75-.66c-2.3,2.56-3.59,5.68-4.48,9.93a157.21,157.21,0,0,0-2,16.79ZM51,76.1a161.54,161.54,0,0,0-16.48,3.82c-4.12,1.34-7.09,3-9.39,5.53l.75.66c2.14-2.38,4.92-3.93,9-5.24A159.57,159.57,0,0,1,51.2,77.09ZM455.67,48c1.11-12.2,1.94-21.41,1.56-28.4s-2-11.89-5.87-15.37l-.67.74c3.59,3.22,5.16,7.79,5.54,14.68s-.45,16-1.55,28.26ZM407.58,5.65c12-2.42,21-4.22,27.92-4.58s11.61.7,15.19,3.92l.67-.74C447.49.77,442.46-.3,435.45.07s-16.06,2.19-28.07,4.6Zm.57,256.5a162.68,162.68,0,0,0,16-4.11c4-1.4,6.88-3.05,9.1-5.59l-.75-.66c-2.07,2.36-4.77,3.93-8.68,5.3a156.72,156.72,0,0,1-15.9,4.08Zm30.42-35.95a158.81,158.81,0,0,1-1.95,16.29c-.84,4.06-2.05,6.94-4.11,9.3l.75.66c2.22-2.54,3.48-5.6,4.34-9.76a160.72,160.72,0,0,0,2-16.4ZM1.68,299.67c-1.12,12.49-2,21.91-1.58,29s2,12.11,6,15.59l.66-.75c-3.68-3.23-5.29-7.87-5.68-14.9s.45-16.37,1.58-28.88Zm49,42.18c-12.26,2.77-21.4,4.83-28.43,5.37s-11.83-.45-15.51-3.67l-.66.75c4,3.48,9.11,4.47,16.25,3.92s16.35-2.63,28.57-5.4Zm-48-42.08L19.62,112.26l-1-.09L1.68,299.67Zm405.25-38.6L50.72,341.85l.22,1,357.21-80.67ZM454.68,47.93,438.57,226.2l1,.09L455.67,48ZM51.2,77.09,407.58,5.65l-.2-1L51,76.1ZM25.51,85.78l-.38-.33ZM451,4.62l-.34.37Zm-18.15,247.5.38.33ZM6.45,343.92l.33-.37Zm44.38-1.58-.11-.49ZM408,261.66l-.11-.49Zm-.56-256.5-.1-.49ZM51.1,76.6l.1.49Z"/><path class="cls-2" d="M219.61,168.89a.82.82,0,0,0-.4-.13.86.86,0,0,0-.42.09.8.8,0,0,0-.42.71v13a.8.8,0,0,0,.42.71.86.86,0,0,0,.42.09.82.82,0,0,0,.4-.13l9.76-6.51a.73.73,0,0,0,.26-.29.8.8,0,0,0,.1-.38.79.79,0,0,0-.1-.37.73.73,0,0,0-.26-.29l-9.76-6.51Zm2.76,27.17a20,20,0,1,1,20-20A20,20,0,0,1,222.37,196.06Z"/></g></g></svg>