<svg xmlns="http://www.w3.org/2000/svg" viewBox="0 0 450.17 406"><defs><style>.cls-1{fill:#638dff;}.cls-2{fill:#fff;}.cls-3{fill:#0160e6;}</style></defs><g id="Layer_2" data-name="Layer 2"><g id="Layer_1-2" data-name="Layer 1"><path class="cls-1" d="M141.76,3.8h-7.58V0h7.58ZM157,3.8h-7.58V0H157Zm15.19,0h-7.58V0h7.58Zm15.19,0h-7.58V0h7.58Zm15.19,0h-7.58V0h7.58Zm15.19,0h-7.58V0h7.58Zm15.18,0h-7.57V0h7.57Zm15.19,0h-7.57V0h7.57Zm15.19,0H255.7V0h7.57Zm15.19,0h-7.57V0h7.57Zm15.19,0h-7.57V0h7.57Zm15.19,0h-7.61V0h7.57V3.8ZM324,3.8h-7.57V0H324Zm15.19,0h-7.57V0h7.57Zm13.91,1.28h-3.81V3.8H346.8V0h6.33ZM126,7h-3.81V0h4.43V3.8H126Zm227.18,13.3h-3.81V12.69h3.81ZM126,22.12h-3.81V14.55H126ZM353.13,35.39h-3.81V27.82h3.81ZM126,37.29h-3.81V29.72H126ZM353.13,50.56h-3.81V43h3.81Zm0,15.17h-3.81V58.16h3.81Zm0,15.17h-3.81V73.33h3.81ZM331,225.66h-3.81v-7.57H331Zm0,15.17h-3.81v-7.57H331ZM331,256h-3.81v-7.6H331Zm0,15.13h-3.81v-7.56H331Zm0,15.17h-3.81v-7.56H331Zm0,15.17h-3.81v-7.56H331Zm0,15.17h-3.81v-7.56H331Zm0,15.17h-3.81v-7.56H331Zm-36.72,5.09H286.7v-3.8h7.57Zm15.19,0h-7.57v-3.8h7.57Zm15.19,0h-7.57v-3.8h7.57Z"/><path class="cls-1" d="M3.81,201.91H244.16V40.47H3.81ZM248,205.72H0v-169H248Z"/><path class="cls-1" d="M3.81,63.94H244.16V40.47H3.81ZM248,67.74H0V36.67H248Z"/><rect class="cls-2" x="164.41" y="77.48" width="3.15" height="118.53"/><rect class="cls-2" x="33.29" y="180.88" width="76.18" height="3.14"/><polygon class="cls-2" points="141.49 164.43 138.3 164.43 138.3 91.92 35 91.92 35 183.79 31.82 183.79 31.82 88.77 141.49 88.77 141.49 164.43"/><rect class="cls-3" x="196.18" y="89.32" width="22.38" height="19.25"/><rect class="cls-2" x="196.18" y="125.25" width="22.38" height="19.25"/><rect class="cls-2" x="197.78" y="126.84" width="19.23" height="16.06"/><rect class="cls-1" x="196.18" y="161.13" width="22.38" height="19.25"/><path class="cls-1" d="M116.74,402.2H284.8V245.87H116.74ZM288.56,406H112.93V242.07H288.6V406Z"/><path class="cls-1" d="M116.74,257.2H284.8V245.87H116.74ZM288.56,261H112.93v-18.9H288.6V261Z"/><path class="cls-3" d="M125.64,358.16s10.6-28.36,19.65-30.85c3.3-.93,6.88.31,11.23,12.77,1.24,3.49,7.19,13.07,14.33,0,5.75-10.48,10.45-38.65,20.9-40.51,7.46-1.32,9.72,5.74,19.66,24.29,1.94,3.61,6.57,11.14,12.16,10.9,8.12-.31,9.83-18.66,11.54-31.46.78-5.71,3.42-19.95,11.54-19.95,9.55,0,12.47,15.25,15.58,35.51,1.63,10.7,5,32.39,18.41,39.26h-155Z"/><path class="cls-1" d="M116.74,402.2H284.8v-45H116.74ZM288.56,406H112.93V353.43H288.6V406Z"/><path class="cls-2" d="M127.81,392.58h145.6V368H127.81Zm148.75,3.14H124.63V364.83H276.56Z"/><rect class="cls-2" x="140.24" y="373.87" width="31.51" height="3.14"/><rect class="cls-2" x="140.4" y="383.22" width="65.65" height="3.14"/><path class="cls-1" d="M267.08,214.21H446.4V90.79H267.08ZM450.17,218H263.27V87h186.9Z"/><path class="cls-2" d="M361.06,149.77l-2.41-2.06,5-5.86,2.25,1.59-1,1.4.19.15Zm54.65.73-2.64-1.74,4.2-6.33,2.64,1.75Zm-39.19,4.27-6.22-4.38,1.83-2.6,6.21,4.34Zm-25.37,6.52-2.41-2.06,4.93-5.74,2.41,2.06Zm56.17,1.86-2.64-1.74,4.2-6.33,2.64,1.75ZM389,163.5l-6.22-4.38,1.83-2.6,6.21,4.38Zm12.39,8.73-6.18-4.34,1.83-2.6,3.53,2.48,2.65,1.75Zm-60.06.58-2.41-2.05,4.94-5.75,2.41,2.06ZM303.05,183.6l-5.43-5.32,2.21-2.25,5.44,5.32Zm28.33.74L329,182.28l4.93-5.74,2.41,2.05Zm-17.45,9.85-5.44-5.31,2.22-2.25,5.44,5.31Zm7.58,1.67-2.41-2.06,4.93-5.74,2.41,2.06Z"/><path class="cls-3" d="M346.45,148.87a17.25,17.25,0,1,0,17.25-17.22A17.25,17.25,0,0,0,346.45,148.87Z"/><path class="cls-2" d="M363.7,133.2a15.64,15.64,0,1,0,15.65,15.64A15.67,15.67,0,0,0,363.7,133.2Zm0,34.45a18.82,18.82,0,1,1,18.84-18.81A18.84,18.84,0,0,1,363.7,167.65Z"/><path class="cls-2" d="M424.73,127.92a5.59,5.59,0,1,0,5.59,5.59A5.6,5.6,0,0,0,424.73,127.92Zm0,14.32a8.73,8.73,0,1,1,8.74-8.73A8.75,8.75,0,0,1,424.73,142.24Z"/><path class="cls-2" d="M287.79,161.29a5.59,5.59,0,1,0,5.59,5.59A5.6,5.6,0,0,0,287.79,161.29Zm0,14.32a8.73,8.73,0,1,1,8.74-8.73A8.75,8.75,0,0,1,287.79,175.61Z"/><rect class="cls-2" x="290.51" y="111.51" width="20.71" height="3.14"/><rect class="cls-2" x="290.7" y="119.97" width="38.23" height="3.14"/><path class="cls-2" d="M56.21,124.74l-6.13-4.46,1.86-2.56,6.14,4.46Zm12.32,8.92-6.14-4.46,1.86-2.56,6.14,4.46Zm12.27,8.93-6.13-4.46,1.86-2.56L82.67,140Zm12.28,8.92-6.14-4.46,1.87-2.56L94.94,149Zm12.28,8.93L99.22,156l1.86-2.56,6.14,4.47Zm12.31,8.92-6.14-4.46,1.87-2.56,6.14,4.46ZM130,178.28l-6.14-4.46,1.86-2.56,6.14,4.46Z"/></g></g></svg>